<svg width="447" height="400" viewBox="0 0 447 400" fill="none" xmlns="http://www.w3.org/2000/svg">
<g clip-path="url(#clip0_3_2)">
<rect width="447" height="400" fill="white"/>
<rect width="447" height="400" rx="39" fill="#5627B0"/>
<rect x="21" y="21" width="405" height="359" rx="38" fill="white"/>
<path d="M228 292.5H218C215 292.5 213 294 213 297.5V304.5C213 308 215 309.5 218 309.5H228C231 309.5 233 308 233 304.5V297.5C233 294 231 292.5 228 292.5ZM228.47 298.59L225.34 301.09C224.68 301.62 223.84 301.88 223 301.88C222.16 301.88 221.31 301.62 220.66 301.09L217.53 298.59C217.21 298.33 217.16 297.85 217.41 297.53C217.67 297.21 218.14 297.15 218.46 297.41L221.59 299.91C222.35 300.52 223.64 300.52 224.4 299.91L227.53 297.41C227.85 297.15 228.33 297.2 228.58 297.53C228.84 297.85 228.79 298.33 228.47 298.59Z" fill="#5627B0"/>
<path d="M171.761 325.053L170.607 325.257C170.558 325.109 170.482 324.969 170.376 324.835C170.274 324.702 170.135 324.592 169.959 324.507C169.783 324.422 169.563 324.379 169.298 324.379C168.938 324.379 168.636 324.46 168.395 324.622C168.153 324.781 168.033 324.987 168.033 325.24C168.033 325.459 168.114 325.635 168.276 325.768C168.438 325.902 168.699 326.011 169.06 326.097L170.099 326.335C170.702 326.474 171.151 326.689 171.446 326.979C171.741 327.268 171.889 327.645 171.889 328.108C171.889 328.5 171.776 328.849 171.548 329.156C171.324 329.46 171.01 329.699 170.607 329.872C170.206 330.045 169.741 330.132 169.213 330.132C168.48 330.132 167.882 329.976 167.419 329.663C166.956 329.348 166.672 328.901 166.567 328.321L167.798 328.134C167.875 328.455 168.033 328.697 168.271 328.862C168.51 329.024 168.821 329.105 169.205 329.105C169.622 329.105 169.956 329.018 170.206 328.845C170.456 328.669 170.581 328.455 170.581 328.202C170.581 327.997 170.504 327.825 170.351 327.686C170.2 327.547 169.969 327.442 169.656 327.371L168.548 327.128C167.938 326.989 167.486 326.767 167.193 326.463C166.903 326.159 166.759 325.774 166.759 325.308C166.759 324.922 166.866 324.584 167.082 324.294C167.298 324.004 167.597 323.778 167.977 323.616C168.358 323.452 168.794 323.369 169.286 323.369C169.993 323.369 170.55 323.523 170.956 323.83C171.362 324.134 171.631 324.541 171.761 325.053ZM177.436 327.286V323.455H178.715V330H177.462V328.866H177.394C177.243 329.216 177.002 329.507 176.669 329.74C176.34 329.97 175.929 330.085 175.438 330.085C175.017 330.085 174.645 329.993 174.321 329.808C174 329.621 173.748 329.344 173.563 328.977C173.381 328.611 173.29 328.158 173.29 327.618V323.455H174.564V327.464C174.564 327.911 174.688 328.266 174.935 328.53C175.182 328.794 175.503 328.926 175.898 328.926C176.137 328.926 176.374 328.866 176.61 328.747C176.848 328.628 177.046 328.447 177.202 328.206C177.361 327.964 177.439 327.658 177.436 327.286ZM180.427 332.455V323.455H181.671V324.516H181.778C181.852 324.379 181.958 324.222 182.097 324.043C182.237 323.864 182.43 323.707 182.677 323.574C182.924 323.438 183.251 323.369 183.657 323.369C184.185 323.369 184.657 323.503 185.072 323.77C185.487 324.037 185.812 324.422 186.048 324.925C186.286 325.428 186.406 326.033 186.406 326.74C186.406 327.447 186.288 328.054 186.052 328.56C185.816 329.062 185.492 329.45 185.08 329.723C184.668 329.993 184.198 330.128 183.67 330.128C183.272 330.128 182.947 330.061 182.694 329.928C182.444 329.794 182.248 329.638 182.106 329.459C181.964 329.28 181.854 329.121 181.778 328.982H181.701V332.455H180.427ZM181.675 326.727C181.675 327.187 181.742 327.591 181.876 327.938C182.009 328.284 182.202 328.555 182.455 328.751C182.708 328.945 183.018 329.041 183.384 329.041C183.765 329.041 184.083 328.94 184.339 328.739C184.594 328.534 184.788 328.257 184.918 327.908C185.052 327.558 185.119 327.165 185.119 326.727C185.119 326.295 185.053 325.908 184.923 325.564C184.795 325.22 184.602 324.949 184.343 324.75C184.087 324.551 183.768 324.452 183.384 324.452C183.015 324.452 182.702 324.547 182.447 324.737C182.194 324.928 182.002 325.193 181.871 325.534C181.741 325.875 181.675 326.273 181.675 326.727ZM187.833 332.455V323.455H189.077V324.516H189.184C189.258 324.379 189.364 324.222 189.504 324.043C189.643 323.864 189.836 323.707 190.083 323.574C190.33 323.438 190.657 323.369 191.063 323.369C191.592 323.369 192.063 323.503 192.478 323.77C192.893 324.037 193.218 324.422 193.454 324.925C193.692 325.428 193.812 326.033 193.812 326.74C193.812 327.447 193.694 328.054 193.458 328.56C193.222 329.062 192.898 329.45 192.487 329.723C192.075 329.993 191.604 330.128 191.076 330.128C190.678 330.128 190.353 330.061 190.1 329.928C189.85 329.794 189.654 329.638 189.512 329.459C189.37 329.28 189.261 329.121 189.184 328.982H189.107V332.455H187.833ZM189.082 326.727C189.082 327.187 189.148 327.591 189.282 327.938C189.415 328.284 189.609 328.555 189.862 328.751C190.114 328.945 190.424 329.041 190.79 329.041C191.171 329.041 191.489 328.94 191.745 328.739C192.001 328.534 192.194 328.257 192.325 327.908C192.458 327.558 192.525 327.165 192.525 326.727C192.525 326.295 192.46 325.908 192.329 325.564C192.201 325.22 192.008 324.949 191.749 324.75C191.494 324.551 191.174 324.452 190.79 324.452C190.421 324.452 190.109 324.547 189.853 324.737C189.6 324.928 189.408 325.193 189.278 325.534C189.147 325.875 189.082 326.273 189.082 326.727ZM197.996 330.132C197.383 330.132 196.847 329.991 196.39 329.71C195.933 329.429 195.577 329.036 195.325 328.53C195.072 328.024 194.945 327.433 194.945 326.757C194.945 326.078 195.072 325.484 195.325 324.976C195.577 324.467 195.933 324.072 196.39 323.791C196.847 323.51 197.383 323.369 197.996 323.369C198.61 323.369 199.146 323.51 199.603 323.791C200.06 324.072 200.415 324.467 200.668 324.976C200.921 325.484 201.048 326.078 201.048 326.757C201.048 327.433 200.921 328.024 200.668 328.53C200.415 329.036 200.06 329.429 199.603 329.71C199.146 329.991 198.61 330.132 197.996 330.132ZM198.001 329.062C198.398 329.062 198.728 328.957 198.989 328.747C199.251 328.537 199.444 328.257 199.569 327.908C199.697 327.558 199.761 327.173 199.761 326.753C199.761 326.335 199.697 325.952 199.569 325.602C199.444 325.25 199.251 324.967 198.989 324.754C198.728 324.541 198.398 324.435 198.001 324.435C197.6 324.435 197.268 324.541 197.004 324.754C196.742 324.967 196.548 325.25 196.42 325.602C196.295 325.952 196.232 326.335 196.232 326.753C196.232 327.173 196.295 327.558 196.42 327.908C196.548 328.257 196.742 328.537 197.004 328.747C197.268 328.957 197.6 329.062 198.001 329.062ZM202.47 330V323.455H203.701V324.494H203.77C203.889 324.142 204.099 323.865 204.4 323.663C204.704 323.459 205.048 323.357 205.431 323.357C205.511 323.357 205.605 323.359 205.713 323.365C205.824 323.371 205.91 323.378 205.973 323.386V324.605C205.922 324.591 205.831 324.575 205.7 324.558C205.569 324.538 205.439 324.528 205.308 324.528C205.007 324.528 204.738 324.592 204.502 324.72C204.27 324.845 204.085 325.02 203.949 325.244C203.812 325.466 203.744 325.719 203.744 326.003V330H202.47ZM210.517 323.455V324.477H206.942V323.455H210.517ZM207.901 321.886H209.175V328.078C209.175 328.325 209.212 328.511 209.286 328.636C209.36 328.759 209.455 328.842 209.571 328.888C209.691 328.93 209.82 328.952 209.959 328.952C210.061 328.952 210.151 328.945 210.228 328.93C210.304 328.916 210.364 328.905 210.407 328.896L210.637 329.949C210.563 329.977 210.458 330.006 210.321 330.034C210.185 330.065 210.015 330.082 209.81 330.085C209.475 330.091 209.162 330.031 208.873 329.906C208.583 329.781 208.348 329.588 208.169 329.327C207.99 329.065 207.901 328.737 207.901 328.342V321.886ZM217.181 332.374C216.3 332.374 215.519 332.253 214.837 332.011C214.158 331.773 213.586 331.42 213.12 330.955C212.654 330.491 212.3 329.923 212.059 329.25C211.817 328.577 211.697 327.808 211.697 326.945C211.697 326.104 211.819 325.348 212.063 324.678C212.308 324.007 212.663 323.436 213.129 322.964C213.597 322.49 214.167 322.128 214.837 321.878C215.508 321.628 216.269 321.503 217.121 321.503C217.937 321.503 218.656 321.631 219.278 321.886C219.9 322.142 220.423 322.493 220.846 322.939C221.272 323.385 221.593 323.896 221.809 324.473C222.025 325.05 222.133 325.659 222.133 326.301C222.133 326.75 222.104 327.189 222.048 327.618C221.991 328.044 221.886 328.43 221.732 328.777C221.582 329.121 221.363 329.396 221.076 329.604C220.792 329.808 220.423 329.915 219.968 329.923C219.727 329.932 219.492 329.903 219.265 329.838C219.038 329.773 218.844 329.668 218.685 329.523C218.526 329.375 218.43 329.188 218.396 328.96H218.344C218.276 329.128 218.163 329.284 218.004 329.429C217.844 329.571 217.641 329.685 217.394 329.77C217.15 329.852 216.866 329.886 216.542 329.872C216.184 329.858 215.862 329.777 215.575 329.629C215.288 329.482 215.042 329.277 214.837 329.016C214.636 328.754 214.481 328.445 214.373 328.087C214.265 327.729 214.211 327.331 214.211 326.893C214.211 326.473 214.272 326.097 214.394 325.764C214.516 325.429 214.683 325.141 214.893 324.899C215.106 324.655 215.35 324.462 215.626 324.32C215.901 324.178 216.192 324.088 216.499 324.051C216.798 324.017 217.072 324.026 217.322 324.077C217.572 324.128 217.779 324.206 217.944 324.311C218.112 324.416 218.217 324.531 218.259 324.656H218.315V324.179H219.363V328.134C219.363 328.358 219.421 328.548 219.538 328.705C219.657 328.861 219.826 328.939 220.045 328.939C220.303 328.939 220.505 328.844 220.65 328.653C220.798 328.463 220.901 328.17 220.961 327.776C221.023 327.381 221.055 326.875 221.055 326.259C221.055 325.827 220.996 325.42 220.88 325.04C220.766 324.656 220.597 324.31 220.373 324C220.151 323.688 219.879 323.419 219.555 323.195C219.231 322.97 218.862 322.797 218.447 322.675C218.035 322.553 217.579 322.491 217.079 322.491C216.4 322.491 215.796 322.597 215.268 322.807C214.739 323.014 214.293 323.314 213.93 323.706C213.569 324.098 213.295 324.568 213.107 325.116C212.923 325.662 212.83 326.274 212.83 326.953C212.83 327.661 212.925 328.288 213.116 328.837C213.306 329.382 213.587 329.842 213.96 330.217C214.332 330.592 214.792 330.876 215.34 331.07C215.888 331.266 216.521 331.364 217.237 331.364C217.555 331.364 217.867 331.335 218.174 331.278C218.481 331.224 218.754 331.162 218.992 331.091C219.234 331.023 219.414 330.967 219.533 330.925L219.832 331.858C219.656 331.94 219.421 332.021 219.129 332.101C218.839 332.18 218.523 332.246 218.183 332.297C217.844 332.348 217.511 332.374 217.181 332.374ZM216.789 328.828C217.158 328.828 217.455 328.754 217.68 328.607C217.907 328.459 218.07 328.239 218.17 327.946C218.272 327.651 218.323 327.281 218.323 326.838C218.32 326.406 218.265 326.062 218.157 325.807C218.052 325.548 217.887 325.364 217.663 325.253C217.441 325.139 217.156 325.082 216.806 325.082C216.485 325.082 216.211 325.161 215.984 325.317C215.759 325.473 215.587 325.685 215.468 325.952C215.352 326.219 215.292 326.516 215.289 326.842C215.292 327.186 215.34 327.51 215.434 327.814C215.531 328.115 215.687 328.359 215.903 328.547C216.121 328.734 216.417 328.828 216.789 328.828ZM226.655 323.455V324.477H222.956V323.455H226.655ZM223.971 330V322.696C223.971 322.287 224.06 321.947 224.239 321.678C224.418 321.405 224.655 321.202 224.951 321.068C225.246 320.932 225.567 320.864 225.914 320.864C226.169 320.864 226.388 320.885 226.57 320.928C226.752 320.967 226.887 321.004 226.975 321.038L226.676 322.07C226.617 322.053 226.54 322.033 226.446 322.01C226.353 321.984 226.239 321.972 226.105 321.972C225.796 321.972 225.574 322.048 225.441 322.202C225.31 322.355 225.245 322.577 225.245 322.866V330H223.971ZM227.97 330V323.455H229.201V324.494H229.27C229.389 324.142 229.599 323.865 229.9 323.663C230.204 323.459 230.548 323.357 230.931 323.357C231.011 323.357 231.105 323.359 231.213 323.365C231.324 323.371 231.41 323.378 231.473 323.386V324.605C231.422 324.591 231.331 324.575 231.2 324.558C231.069 324.538 230.939 324.528 230.808 324.528C230.507 324.528 230.238 324.592 230.002 324.72C229.77 324.845 229.585 325.02 229.449 325.244C229.312 325.466 229.244 325.719 229.244 326.003V330H227.97ZM232.575 330V323.455H233.849V330H232.575ZM233.219 322.445C232.997 322.445 232.807 322.371 232.648 322.223C232.491 322.072 232.413 321.893 232.413 321.686C232.413 321.476 232.491 321.297 232.648 321.149C232.807 320.999 232.997 320.923 233.219 320.923C233.44 320.923 233.629 320.999 233.786 321.149C233.945 321.297 234.024 321.476 234.024 321.686C234.024 321.893 233.945 322.072 233.786 322.223C233.629 322.371 233.44 322.445 233.219 322.445ZM238.385 330.132C237.74 330.132 237.184 329.994 236.718 329.719C236.255 329.44 235.897 329.05 235.645 328.547C235.395 328.041 235.27 327.449 235.27 326.77C235.27 326.099 235.395 325.509 235.645 324.997C235.897 324.486 236.25 324.087 236.701 323.8C237.156 323.513 237.687 323.369 238.295 323.369C238.664 323.369 239.022 323.43 239.369 323.553C239.716 323.675 240.027 323.866 240.302 324.128C240.578 324.389 240.795 324.729 240.954 325.146C241.113 325.561 241.193 326.065 241.193 326.659V327.111H235.99V326.156H239.944C239.944 325.821 239.876 325.524 239.74 325.266C239.603 325.004 239.412 324.798 239.164 324.648C238.92 324.497 238.633 324.422 238.304 324.422C237.946 324.422 237.633 324.51 237.366 324.686C237.102 324.859 236.897 325.087 236.752 325.368C236.61 325.646 236.539 325.949 236.539 326.276V327.021C236.539 327.459 236.616 327.831 236.77 328.138C236.926 328.445 237.143 328.679 237.422 328.841C237.7 329 238.025 329.08 238.397 329.08C238.639 329.08 238.859 329.045 239.058 328.977C239.257 328.906 239.429 328.801 239.574 328.662C239.718 328.523 239.829 328.351 239.906 328.146L241.112 328.364C241.015 328.719 240.842 329.03 240.592 329.297C240.345 329.561 240.034 329.767 239.659 329.915C239.287 330.06 238.862 330.132 238.385 330.132ZM243.881 326.114V330H242.607V323.455H243.83V324.52H243.911C244.061 324.173 244.297 323.895 244.618 323.685C244.942 323.474 245.349 323.369 245.841 323.369C246.287 323.369 246.678 323.463 247.013 323.651C247.348 323.835 247.608 324.111 247.793 324.477C247.977 324.844 248.07 325.297 248.07 325.837V330H246.795V325.99C246.795 325.516 246.672 325.145 246.425 324.878C246.178 324.608 245.838 324.473 245.406 324.473C245.111 324.473 244.848 324.537 244.618 324.665C244.391 324.793 244.21 324.98 244.077 325.227C243.946 325.472 243.881 325.767 243.881 326.114ZM251.053 326.114V330H249.778V323.455H251.001V324.52H251.082C251.233 324.173 251.469 323.895 251.79 323.685C252.114 323.474 252.521 323.369 253.013 323.369C253.459 323.369 253.849 323.463 254.185 323.651C254.52 323.835 254.78 324.111 254.964 324.477C255.149 324.844 255.241 325.297 255.241 325.837V330H253.967V325.99C253.967 325.516 253.844 325.145 253.597 324.878C253.349 324.608 253.01 324.473 252.578 324.473C252.283 324.473 252.02 324.537 251.79 324.665C251.563 324.793 251.382 324.98 251.249 325.227C251.118 325.472 251.053 325.767 251.053 326.114ZM258.224 321.273V330H256.95V321.273H258.224ZM260.744 332.455C260.554 332.455 260.38 332.439 260.224 332.408C260.068 332.379 259.951 332.348 259.875 332.314L260.181 331.27C260.414 331.332 260.622 331.359 260.804 331.351C260.985 331.342 261.146 331.274 261.285 331.146C261.427 331.018 261.552 330.81 261.66 330.52L261.818 330.085L259.423 323.455H260.787L262.444 328.534H262.512L264.17 323.455H265.538L262.841 330.874C262.716 331.214 262.556 331.503 262.363 331.739C262.17 331.977 261.94 332.156 261.673 332.276C261.406 332.395 261.096 332.455 260.744 332.455ZM267.165 330.081C266.932 330.081 266.732 329.999 266.564 329.834C266.396 329.666 266.312 329.464 266.312 329.229C266.312 328.996 266.396 328.797 266.564 328.632C266.732 328.464 266.932 328.381 267.165 328.381C267.398 328.381 267.598 328.464 267.766 328.632C267.933 328.797 268.017 328.996 268.017 329.229C268.017 329.385 267.977 329.528 267.898 329.659C267.821 329.787 267.719 329.889 267.591 329.966C267.463 330.043 267.321 330.081 267.165 330.081ZM269.724 330V323.455H270.998V330H269.724ZM270.367 322.445C270.146 322.445 269.955 322.371 269.796 322.223C269.64 322.072 269.562 321.893 269.562 321.686C269.562 321.476 269.64 321.297 269.796 321.149C269.955 320.999 270.146 320.923 270.367 320.923C270.589 320.923 270.778 320.999 270.934 321.149C271.093 321.297 271.173 321.476 271.173 321.686C271.173 321.893 271.093 322.072 270.934 322.223C270.778 322.371 270.589 322.445 270.367 322.445ZM273.986 326.114V330H272.712V323.455H273.935V324.52H274.016C274.167 324.173 274.402 323.895 274.723 323.685C275.047 323.474 275.455 323.369 275.946 323.369C276.392 323.369 276.783 323.463 277.118 323.651C277.453 323.835 277.713 324.111 277.898 324.477C278.083 324.844 278.175 325.297 278.175 325.837V330H276.901V325.99C276.901 325.516 276.777 325.145 276.53 324.878C276.283 324.608 275.944 324.473 275.512 324.473C275.216 324.473 274.953 324.537 274.723 324.665C274.496 324.793 274.316 324.98 274.182 325.227C274.051 325.472 273.986 325.767 273.986 326.114Z" fill="#5627B0"/>
<path d="M145.959 211V202.273H149.07C149.746 202.273 150.307 202.389 150.753 202.622C151.202 202.855 151.537 203.178 151.759 203.589C151.98 203.999 152.091 204.472 152.091 205.009C152.091 205.543 151.979 206.013 151.754 206.419C151.533 206.822 151.197 207.136 150.749 207.361C150.303 207.585 149.741 207.697 149.065 207.697H146.709V206.564H148.946C149.372 206.564 149.719 206.503 149.986 206.381C150.256 206.259 150.453 206.081 150.578 205.848C150.703 205.615 150.766 205.335 150.766 205.009C150.766 204.679 150.702 204.393 150.574 204.152C150.449 203.911 150.251 203.726 149.982 203.598C149.714 203.467 149.364 203.402 148.929 203.402H147.276V211H145.959ZM150.267 207.062L152.423 211H150.923L148.81 207.062H150.267ZM155.496 211.145C155.081 211.145 154.706 211.068 154.371 210.915C154.036 210.759 153.77 210.533 153.574 210.237C153.381 209.942 153.284 209.58 153.284 209.151C153.284 208.781 153.355 208.477 153.497 208.239C153.639 208 153.831 207.811 154.072 207.672C154.314 207.533 154.584 207.428 154.882 207.357C155.18 207.286 155.484 207.232 155.794 207.195C156.186 207.149 156.504 207.112 156.749 207.084C156.993 207.053 157.17 207.003 157.281 206.935C157.392 206.866 157.447 206.756 157.447 206.602V206.572C157.447 206.2 157.342 205.912 157.132 205.707C156.925 205.503 156.615 205.401 156.203 205.401C155.774 205.401 155.436 205.496 155.189 205.686C154.945 205.874 154.776 206.082 154.682 206.312L153.484 206.04C153.626 205.642 153.834 205.321 154.107 205.077C154.382 204.83 154.699 204.651 155.057 204.54C155.415 204.426 155.791 204.369 156.186 204.369C156.447 204.369 156.724 204.401 157.017 204.463C157.313 204.523 157.588 204.634 157.844 204.795C158.102 204.957 158.314 205.189 158.479 205.49C158.643 205.788 158.726 206.176 158.726 206.653V211H157.482V210.105H157.43C157.348 210.27 157.224 210.432 157.06 210.591C156.895 210.75 156.683 210.882 156.425 210.987C156.166 211.092 155.857 211.145 155.496 211.145ZM155.773 210.122C156.125 210.122 156.426 210.053 156.676 209.913C156.929 209.774 157.121 209.592 157.251 209.368C157.385 209.141 157.452 208.898 157.452 208.639V207.795C157.406 207.841 157.318 207.884 157.188 207.923C157.06 207.96 156.913 207.993 156.749 208.021C156.584 208.047 156.423 208.071 156.267 208.094C156.111 208.114 155.98 208.131 155.875 208.145C155.628 208.176 155.402 208.229 155.197 208.303C154.996 208.376 154.834 208.483 154.712 208.622C154.592 208.759 154.533 208.94 154.533 209.168C154.533 209.483 154.649 209.722 154.882 209.884C155.115 210.043 155.412 210.122 155.773 210.122ZM161.595 208.78L161.586 207.224H161.808L164.416 204.455H165.941L162.967 207.608H162.767L161.595 208.78ZM160.423 211V202.273H161.697V211H160.423ZM164.556 211L162.213 207.889L163.091 206.999L166.12 211H164.556ZM169.654 211.132C169.009 211.132 168.454 210.994 167.988 210.719C167.525 210.44 167.167 210.05 166.914 209.547C166.664 209.041 166.539 208.449 166.539 207.77C166.539 207.099 166.664 206.509 166.914 205.997C167.167 205.486 167.519 205.087 167.971 204.8C168.425 204.513 168.957 204.369 169.565 204.369C169.934 204.369 170.292 204.43 170.638 204.553C170.985 204.675 171.296 204.866 171.572 205.128C171.847 205.389 172.065 205.729 172.224 206.146C172.383 206.561 172.462 207.065 172.462 207.659V208.111H167.259V207.156H171.214C171.214 206.821 171.146 206.524 171.009 206.266C170.873 206.004 170.681 205.798 170.434 205.648C170.19 205.497 169.903 205.422 169.573 205.422C169.215 205.422 168.903 205.51 168.636 205.686C168.371 205.859 168.167 206.087 168.022 206.368C167.88 206.646 167.809 206.949 167.809 207.276V208.021C167.809 208.459 167.886 208.831 168.039 209.138C168.195 209.445 168.413 209.679 168.691 209.841C168.969 210 169.295 210.08 169.667 210.08C169.908 210.08 170.129 210.045 170.327 209.977C170.526 209.906 170.698 209.801 170.843 209.662C170.988 209.523 171.099 209.351 171.175 209.146L172.381 209.364C172.285 209.719 172.112 210.03 171.862 210.297C171.614 210.561 171.303 210.767 170.928 210.915C170.556 211.06 170.131 211.132 169.654 211.132ZM178.781 206.053L177.626 206.257C177.578 206.109 177.501 205.969 177.396 205.835C177.294 205.702 177.154 205.592 176.978 205.507C176.802 205.422 176.582 205.379 176.318 205.379C175.957 205.379 175.656 205.46 175.414 205.622C175.173 205.781 175.052 205.987 175.052 206.24C175.052 206.459 175.133 206.635 175.295 206.768C175.457 206.902 175.718 207.011 176.079 207.097L177.119 207.335C177.721 207.474 178.17 207.689 178.466 207.979C178.761 208.268 178.909 208.645 178.909 209.108C178.909 209.5 178.795 209.849 178.568 210.156C178.343 210.46 178.029 210.699 177.626 210.872C177.225 211.045 176.761 211.132 176.233 211.132C175.5 211.132 174.902 210.976 174.439 210.663C173.975 210.348 173.691 209.901 173.586 209.321L174.818 209.134C174.895 209.455 175.052 209.697 175.291 209.862C175.529 210.024 175.841 210.105 176.224 210.105C176.642 210.105 176.975 210.018 177.225 209.845C177.475 209.669 177.6 209.455 177.6 209.202C177.6 208.997 177.524 208.825 177.37 208.686C177.22 208.547 176.988 208.442 176.676 208.371L175.568 208.128C174.957 207.989 174.505 207.767 174.213 207.463C173.923 207.159 173.778 206.774 173.778 206.308C173.778 205.922 173.886 205.584 174.102 205.294C174.318 205.004 174.616 204.778 174.997 204.616C175.377 204.452 175.814 204.369 176.305 204.369C177.012 204.369 177.569 204.523 177.975 204.83C178.382 205.134 178.65 205.541 178.781 206.053ZM181.584 207.114V211H180.31V202.273H181.567V205.52H181.648C181.801 205.168 182.036 204.888 182.351 204.68C182.666 204.473 183.078 204.369 183.587 204.369C184.036 204.369 184.428 204.462 184.763 204.646C185.101 204.831 185.362 205.107 185.547 205.473C185.734 205.837 185.828 206.291 185.828 206.837V211H184.554V206.99C184.554 206.51 184.43 206.138 184.183 205.874C183.936 205.607 183.592 205.473 183.152 205.473C182.851 205.473 182.581 205.537 182.342 205.665C182.107 205.793 181.92 205.98 181.784 206.227C181.651 206.472 181.584 206.767 181.584 207.114ZM190.806 211V202.273H192.123V209.866H196.078V211H190.806ZM199.382 211.145C198.968 211.145 198.593 211.068 198.257 210.915C197.922 210.759 197.657 210.533 197.461 210.237C197.267 209.942 197.171 209.58 197.171 209.151C197.171 208.781 197.242 208.477 197.384 208.239C197.526 208 197.718 207.811 197.959 207.672C198.201 207.533 198.471 207.428 198.769 207.357C199.067 207.286 199.371 207.232 199.681 207.195C200.073 207.149 200.391 207.112 200.635 207.084C200.88 207.053 201.057 207.003 201.168 206.935C201.279 206.866 201.334 206.756 201.334 206.602V206.572C201.334 206.2 201.229 205.912 201.019 205.707C200.811 205.503 200.502 205.401 200.09 205.401C199.661 205.401 199.323 205.496 199.076 205.686C198.831 205.874 198.662 206.082 198.569 206.312L197.371 206.04C197.513 205.642 197.721 205.321 197.993 205.077C198.269 204.83 198.586 204.651 198.944 204.54C199.301 204.426 199.678 204.369 200.073 204.369C200.334 204.369 200.611 204.401 200.904 204.463C201.199 204.523 201.475 204.634 201.73 204.795C201.989 204.957 202.201 205.189 202.365 205.49C202.53 205.788 202.613 206.176 202.613 206.653V211H201.368V210.105H201.317C201.235 210.27 201.111 210.432 200.946 210.591C200.782 210.75 200.57 210.882 200.311 210.987C200.053 211.092 199.743 211.145 199.382 211.145ZM199.659 210.122C200.012 210.122 200.313 210.053 200.563 209.913C200.816 209.774 201.007 209.592 201.138 209.368C201.272 209.141 201.338 208.898 201.338 208.639V207.795C201.293 207.841 201.205 207.884 201.074 207.923C200.946 207.96 200.8 207.993 200.635 208.021C200.471 208.047 200.31 208.071 200.154 208.094C199.998 208.114 199.867 208.131 199.762 208.145C199.515 208.176 199.289 208.229 199.084 208.303C198.882 208.376 198.721 208.483 198.598 208.622C198.479 208.759 198.419 208.94 198.419 209.168C198.419 209.483 198.536 209.722 198.769 209.884C199.002 210.043 199.299 210.122 199.659 210.122ZM206.76 211.128C206.232 211.128 205.76 210.993 205.345 210.723C204.933 210.45 204.609 210.062 204.374 209.56C204.141 209.054 204.024 208.447 204.024 207.74C204.024 207.033 204.142 206.428 204.378 205.925C204.616 205.422 204.943 205.037 205.358 204.77C205.773 204.503 206.243 204.369 206.768 204.369C207.175 204.369 207.501 204.438 207.749 204.574C207.999 204.707 208.192 204.864 208.328 205.043C208.467 205.222 208.575 205.379 208.652 205.516H208.729V202.273H210.003V211H208.759V209.982H208.652C208.575 210.121 208.464 210.28 208.32 210.459C208.178 210.638 207.982 210.794 207.732 210.928C207.482 211.061 207.158 211.128 206.76 211.128ZM207.041 210.041C207.408 210.041 207.717 209.945 207.97 209.751C208.226 209.555 208.419 209.284 208.55 208.938C208.683 208.591 208.75 208.187 208.75 207.727C208.75 207.273 208.685 206.875 208.554 206.534C208.423 206.193 208.232 205.928 207.979 205.737C207.726 205.547 207.413 205.452 207.041 205.452C206.658 205.452 206.338 205.551 206.082 205.75C205.827 205.949 205.634 206.22 205.503 206.564C205.375 206.908 205.311 207.295 205.311 207.727C205.311 208.165 205.376 208.558 205.507 208.908C205.638 209.257 205.831 209.534 206.087 209.739C206.345 209.94 206.663 210.041 207.041 210.041ZM211.821 211V204.455H213.096V211H211.821ZM212.465 203.445C212.243 203.445 212.053 203.371 211.894 203.223C211.738 203.072 211.659 202.893 211.659 202.686C211.659 202.476 211.738 202.297 211.894 202.149C212.053 201.999 212.243 201.923 212.465 201.923C212.686 201.923 212.875 201.999 213.032 202.149C213.191 202.297 213.27 202.476 213.27 202.686C213.27 202.893 213.191 203.072 213.032 203.223C212.875 203.371 212.686 203.445 212.465 203.445ZM221.842 206.082V207.19H217.973V206.082H221.842ZM226.993 211L230.803 203.466V203.402H226.396V202.273H232.166V203.44L228.369 211H226.993ZM236.507 211.119C236.118 211.114 235.735 211.043 235.357 210.906C234.982 210.77 234.641 210.543 234.334 210.224C234.027 209.906 233.782 209.479 233.597 208.942C233.415 208.405 233.324 207.734 233.324 206.93C233.324 206.169 233.4 205.493 233.55 204.902C233.703 204.311 233.924 203.812 234.211 203.406C234.498 202.997 234.844 202.686 235.25 202.473C235.657 202.26 236.113 202.153 236.618 202.153C237.138 202.153 237.6 202.256 238.003 202.46C238.407 202.665 238.733 202.947 238.983 203.308C239.236 203.669 239.397 204.08 239.465 204.54H238.165C238.077 204.176 237.902 203.879 237.641 203.649C237.38 203.419 237.039 203.304 236.618 203.304C235.979 203.304 235.48 203.582 235.123 204.139C234.767 204.696 234.588 205.47 234.586 206.462H234.65C234.8 206.214 234.985 206.004 235.203 205.831C235.425 205.655 235.672 205.52 235.945 205.426C236.221 205.33 236.51 205.281 236.814 205.281C237.32 205.281 237.777 205.405 238.186 205.652C238.598 205.896 238.926 206.234 239.171 206.666C239.415 207.098 239.537 207.592 239.537 208.149C239.537 208.706 239.411 209.21 239.158 209.662C238.908 210.114 238.556 210.472 238.101 210.736C237.647 210.997 237.115 211.125 236.507 211.119ZM236.503 210.011C236.838 210.011 237.138 209.929 237.402 209.764C237.667 209.599 237.875 209.378 238.029 209.099C238.182 208.821 238.259 208.51 238.259 208.166C238.259 207.831 238.184 207.526 238.033 207.25C237.885 206.974 237.681 206.756 237.419 206.594C237.161 206.432 236.865 206.351 236.533 206.351C236.28 206.351 236.046 206.399 235.83 206.496C235.617 206.592 235.429 206.726 235.267 206.896C235.105 207.067 234.978 207.263 234.884 207.484C234.793 207.703 234.748 207.935 234.748 208.179C234.748 208.506 234.823 208.808 234.973 209.087C235.127 209.365 235.336 209.589 235.6 209.76C235.867 209.928 236.168 210.011 236.503 210.011ZM243.97 211.119C243.436 211.119 242.956 211.017 242.53 210.812C242.107 210.605 241.768 210.321 241.516 209.96C241.263 209.599 241.128 209.188 241.111 208.724H242.389C242.42 209.099 242.587 209.408 242.888 209.649C243.189 209.891 243.55 210.011 243.97 210.011C244.305 210.011 244.602 209.935 244.861 209.781C245.122 209.625 245.327 209.411 245.474 209.138C245.625 208.865 245.7 208.554 245.7 208.205C245.7 207.849 245.624 207.533 245.47 207.254C245.317 206.976 245.105 206.757 244.835 206.598C244.568 206.439 244.261 206.358 243.915 206.355C243.651 206.355 243.385 206.401 243.118 206.491C242.851 206.582 242.635 206.702 242.47 206.849L241.264 206.67L241.754 202.273H246.553V203.402H242.849L242.572 205.844H242.624C242.794 205.679 243.02 205.541 243.301 205.43C243.585 205.32 243.889 205.264 244.213 205.264C244.744 205.264 245.217 205.391 245.632 205.643C246.05 205.896 246.378 206.241 246.616 206.679C246.858 207.114 246.977 207.614 246.974 208.179C246.977 208.744 246.849 209.249 246.591 209.692C246.335 210.135 245.98 210.484 245.526 210.74C245.074 210.993 244.555 211.119 243.97 211.119ZM251.412 211.119C250.877 211.119 250.397 211.017 249.971 210.812C249.548 210.605 249.21 210.321 248.957 209.96C248.704 209.599 248.569 209.188 248.552 208.724H249.831C249.862 209.099 250.028 209.408 250.329 209.649C250.63 209.891 250.991 210.011 251.412 210.011C251.747 210.011 252.044 209.935 252.302 209.781C252.564 209.625 252.768 209.411 252.916 209.138C253.066 208.865 253.142 208.554 253.142 208.205C253.142 207.849 253.065 207.533 252.912 207.254C252.758 206.976 252.547 206.757 252.277 206.598C252.01 206.439 251.703 206.358 251.356 206.355C251.092 206.355 250.826 206.401 250.559 206.491C250.292 206.582 250.076 206.702 249.912 206.849L248.706 206.67L249.196 202.273H253.994V203.402H250.291L250.014 205.844H250.065C250.235 205.679 250.461 205.541 250.743 205.43C251.027 205.32 251.331 205.264 251.654 205.264C252.186 205.264 252.659 205.391 253.074 205.643C253.491 205.896 253.819 206.241 254.058 206.679C254.299 207.114 254.419 207.614 254.416 208.179C254.419 208.744 254.291 209.249 254.032 209.692C253.777 210.135 253.422 210.484 252.967 210.74C252.515 210.993 251.997 211.119 251.412 211.119ZM258.921 211.119C258.31 211.119 257.771 211.014 257.302 210.804C256.836 210.594 256.471 210.304 256.207 209.935C255.942 209.565 255.812 209.145 255.815 208.673C255.812 208.304 255.887 207.964 256.04 207.655C256.197 207.342 256.408 207.082 256.675 206.875C256.942 206.665 257.241 206.531 257.57 206.474V206.423C257.136 206.318 256.788 206.085 256.526 205.724C256.265 205.364 256.136 204.949 256.138 204.48C256.136 204.034 256.254 203.636 256.492 203.287C256.734 202.935 257.065 202.658 257.485 202.456C257.906 202.254 258.384 202.153 258.921 202.153C259.452 202.153 259.927 202.256 260.344 202.46C260.765 202.662 261.096 202.939 261.337 203.291C261.579 203.641 261.701 204.037 261.704 204.48C261.701 204.949 261.567 205.364 261.303 205.724C261.039 206.085 260.695 206.318 260.272 206.423V206.474C260.599 206.531 260.893 206.665 261.154 206.875C261.418 207.082 261.629 207.342 261.785 207.655C261.944 207.964 262.025 208.304 262.028 208.673C262.025 209.145 261.891 209.565 261.627 209.935C261.363 210.304 260.996 210.594 260.528 210.804C260.062 211.014 259.526 211.119 258.921 211.119ZM258.921 210.041C259.282 210.041 259.594 209.982 259.859 209.862C260.123 209.74 260.327 209.571 260.472 209.355C260.617 209.136 260.691 208.881 260.694 208.588C260.691 208.284 260.612 208.016 260.455 207.783C260.302 207.55 260.093 207.366 259.829 207.233C259.565 207.099 259.262 207.033 258.921 207.033C258.577 207.033 258.272 207.099 258.005 207.233C257.738 207.366 257.528 207.55 257.374 207.783C257.221 208.016 257.146 208.284 257.148 208.588C257.146 208.881 257.215 209.136 257.357 209.355C257.502 209.571 257.708 209.74 257.975 209.862C258.242 209.982 258.558 210.041 258.921 210.041ZM258.921 205.98C259.211 205.98 259.468 205.922 259.692 205.805C259.917 205.689 260.093 205.527 260.221 205.32C260.352 205.112 260.418 204.869 260.421 204.591C260.418 204.318 260.353 204.08 260.225 203.875C260.1 203.67 259.925 203.513 259.701 203.402C259.477 203.288 259.217 203.232 258.921 203.232C258.62 203.232 258.356 203.288 258.129 203.402C257.904 203.513 257.729 203.67 257.604 203.875C257.479 204.08 257.418 204.318 257.421 204.591C257.418 204.869 257.481 205.112 257.609 205.32C257.737 205.527 257.913 205.689 258.137 205.805C258.364 205.922 258.626 205.98 258.921 205.98ZM263.848 211L267.658 203.466V203.402H263.252V202.273H269.022V203.44L265.225 211H263.848ZM273.288 202.153C273.678 202.156 274.061 202.227 274.439 202.366C274.817 202.506 275.158 202.733 275.462 203.048C275.768 203.364 276.013 203.79 276.195 204.327C276.379 204.861 276.473 205.526 276.476 206.321C276.476 207.085 276.399 207.766 276.246 208.362C276.092 208.956 275.872 209.457 275.585 209.866C275.301 210.276 274.956 210.587 274.55 210.8C274.143 211.013 273.686 211.119 273.178 211.119C272.658 211.119 272.196 211.017 271.793 210.812C271.389 210.608 271.061 210.325 270.808 209.964C270.555 209.601 270.398 209.183 270.335 208.712H271.635C271.72 209.087 271.893 209.391 272.155 209.624C272.419 209.854 272.76 209.969 273.178 209.969C273.817 209.969 274.315 209.69 274.673 209.134C275.031 208.574 275.212 207.793 275.214 206.79H275.146C274.999 207.034 274.814 207.244 274.592 207.42C274.374 207.597 274.128 207.733 273.855 207.83C273.582 207.926 273.291 207.974 272.982 207.974C272.479 207.974 272.021 207.851 271.609 207.604C271.197 207.357 270.869 207.017 270.625 206.585C270.381 206.153 270.259 205.661 270.259 205.107C270.259 204.555 270.384 204.055 270.634 203.607C270.886 203.158 271.239 202.803 271.69 202.541C272.145 202.277 272.678 202.148 273.288 202.153ZM273.293 203.261C272.96 203.261 272.661 203.344 272.393 203.509C272.129 203.67 271.92 203.891 271.767 204.169C271.614 204.445 271.537 204.751 271.537 205.089C271.537 205.428 271.611 205.734 271.759 206.01C271.909 206.283 272.114 206.5 272.372 206.662C272.634 206.821 272.932 206.901 273.267 206.901C273.517 206.901 273.75 206.852 273.966 206.756C274.182 206.659 274.371 206.526 274.533 206.355C274.695 206.182 274.821 205.986 274.912 205.767C275.003 205.548 275.048 205.318 275.048 205.077C275.048 204.756 274.972 204.457 274.818 204.182C274.668 203.906 274.46 203.685 274.196 203.517C273.932 203.347 273.631 203.261 273.293 203.261ZM277.832 209.295V208.23L281.603 202.273H282.443V203.841H281.91L279.213 208.111V208.179H284.382V209.295H277.832ZM281.97 211V208.972L281.978 208.486V202.273H283.227V211H281.97ZM288.905 211.145C288.232 211.142 287.657 210.964 287.179 210.612C286.702 210.26 286.337 209.747 286.084 209.074C285.831 208.401 285.705 207.589 285.705 206.641C285.705 205.695 285.831 204.886 286.084 204.216C286.34 203.545 286.706 203.034 287.184 202.682C287.664 202.33 288.238 202.153 288.905 202.153C289.573 202.153 290.145 202.331 290.623 202.686C291.1 203.038 291.465 203.55 291.718 204.22C291.973 204.888 292.101 205.695 292.101 206.641C292.101 207.592 291.975 208.405 291.722 209.078C291.469 209.749 291.104 210.261 290.627 210.616C290.15 210.969 289.576 211.145 288.905 211.145ZM288.905 210.007C289.496 210.007 289.958 209.719 290.29 209.142C290.625 208.565 290.793 207.732 290.793 206.641C290.793 205.916 290.716 205.304 290.563 204.804C290.412 204.301 290.195 203.92 289.911 203.662C289.63 203.401 289.294 203.27 288.905 203.27C288.317 203.27 287.855 203.56 287.52 204.139C287.185 204.719 287.016 205.553 287.013 206.641C287.013 207.368 287.088 207.983 287.239 208.486C287.392 208.986 287.61 209.365 287.891 209.624C288.172 209.879 288.51 210.007 288.905 210.007ZM296.494 211.119C295.96 211.119 295.479 211.017 295.053 210.812C294.63 210.605 294.292 210.321 294.039 209.96C293.786 209.599 293.651 209.188 293.634 208.724H294.913C294.944 209.099 295.11 209.408 295.411 209.649C295.712 209.891 296.073 210.011 296.494 210.011C296.829 210.011 297.126 209.935 297.384 209.781C297.646 209.625 297.85 209.411 297.998 209.138C298.148 208.865 298.224 208.554 298.224 208.205C298.224 207.849 298.147 207.533 297.994 207.254C297.84 206.976 297.629 206.757 297.359 206.598C297.092 206.439 296.785 206.358 296.438 206.355C296.174 206.355 295.908 206.401 295.641 206.491C295.374 206.582 295.158 206.702 294.994 206.849L293.788 206.67L294.278 202.273H299.076V203.402H295.373L295.096 205.844H295.147C295.317 205.679 295.543 205.541 295.825 205.43C296.109 205.32 296.413 205.264 296.737 205.264C297.268 205.264 297.741 205.391 298.156 205.643C298.573 205.896 298.901 206.241 299.14 206.679C299.381 207.114 299.501 207.614 299.498 208.179C299.501 208.744 299.373 209.249 299.114 209.692C298.859 210.135 298.504 210.484 298.049 210.74C297.597 210.993 297.079 211.119 296.494 211.119Z" fill="#5627B0"/>
<path d="M232.98 182.41C232.64 176.61 227.37 172.14 221.3 173.14C217.12 173.83 213.77 177.22 213.12 181.4C212.74 183.82 213.24 186.11 214.33 188L213.44 191.31C213.24 192.06 213.93 192.74 214.67 192.53L217.93 191.63C219.41 192.5 221.14 193 222.99 193C228.63 193 233.31 188.03 232.98 182.41ZM227.88 186.72C227.79 186.9 227.68 187.07 227.54 187.23C227.29 187.5 227.02 187.7 226.72 187.82C226.42 187.95 226.09 188.01 225.74 188.01C225.23 188.01 224.68 187.89 224.11 187.64C223.53 187.39 222.96 187.06 222.39 186.65C221.81 186.23 221.27 185.76 220.75 185.25C220.23 184.73 219.77 184.18 219.35 183.61C218.94 183.04 218.61 182.47 218.37 181.9C218.13 181.33 218.01 180.78 218.01 180.26C218.01 179.92 218.07 179.59 218.19 179.29C218.31 178.98 218.5 178.7 218.77 178.45C219.09 178.13 219.44 177.98 219.81 177.98C219.95 177.98 220.09 178.01 220.22 178.07C220.35 178.13 220.47 178.22 220.56 178.35L221.72 179.99C221.81 180.12 221.88 180.23 221.92 180.34C221.97 180.45 221.99 180.55 221.99 180.65C221.99 180.77 221.95 180.89 221.88 181.01C221.81 181.13 221.72 181.25 221.6 181.37L221.22 181.77C221.16 181.83 221.14 181.89 221.14 181.97C221.14 182.01 221.15 182.05 221.16 182.09C221.18 182.13 221.19 182.16 221.2 182.19C221.29 182.36 221.45 182.57 221.67 182.83C221.9 183.09 222.14 183.36 222.4 183.62C222.67 183.89 222.93 184.13 223.2 184.36C223.46 184.58 223.68 184.73 223.85 184.82C223.88 184.83 223.91 184.85 223.94 184.86C223.98 184.88 224.02 184.88 224.07 184.88C224.16 184.88 224.22 184.85 224.28 184.79L224.66 184.41C224.79 184.28 224.91 184.19 225.02 184.13C225.14 184.06 225.25 184.02 225.38 184.02C225.48 184.02 225.58 184.04 225.69 184.09C225.8 184.14 225.92 184.2 226.04 184.29L227.7 185.47C227.83 185.56 227.92 185.67 227.98 185.79C228.03 185.92 228.06 186.04 228.06 186.18C228 186.35 227.96 186.54 227.88 186.72Z" fill="#5627B0"/>
<path d="M128.959 271V262.273H130.276V266.065H134.626V262.273H135.947V271H134.626V267.195H130.276V271H128.959ZM139.668 271.145C139.253 271.145 138.878 271.068 138.543 270.915C138.207 270.759 137.942 270.533 137.746 270.237C137.553 269.942 137.456 269.58 137.456 269.151C137.456 268.781 137.527 268.477 137.669 268.239C137.811 268 138.003 267.811 138.244 267.672C138.486 267.533 138.756 267.428 139.054 267.357C139.352 267.286 139.656 267.232 139.966 267.195C140.358 267.149 140.676 267.112 140.92 267.084C141.165 267.053 141.342 267.003 141.453 266.935C141.564 266.866 141.619 266.756 141.619 266.602V266.572C141.619 266.2 141.514 265.912 141.304 265.707C141.097 265.503 140.787 265.401 140.375 265.401C139.946 265.401 139.608 265.496 139.361 265.686C139.116 265.874 138.947 266.082 138.854 266.312L137.656 266.04C137.798 265.642 138.006 265.321 138.278 265.077C138.554 264.83 138.871 264.651 139.229 264.54C139.587 264.426 139.963 264.369 140.358 264.369C140.619 264.369 140.896 264.401 141.189 264.463C141.484 264.523 141.76 264.634 142.016 264.795C142.274 264.957 142.486 265.189 142.651 265.49C142.815 265.788 142.898 266.176 142.898 266.653V271H141.653V270.105H141.602C141.52 270.27 141.396 270.432 141.232 270.591C141.067 270.75 140.855 270.882 140.597 270.987C140.338 271.092 140.028 271.145 139.668 271.145ZM139.945 270.122C140.297 270.122 140.598 270.053 140.848 269.913C141.101 269.774 141.293 269.592 141.423 269.368C141.557 269.141 141.624 268.898 141.624 268.639V267.795C141.578 267.841 141.49 267.884 141.359 267.923C141.232 267.96 141.085 267.993 140.92 268.021C140.756 268.047 140.595 268.071 140.439 268.094C140.283 268.114 140.152 268.131 140.047 268.145C139.8 268.176 139.574 268.229 139.369 268.303C139.168 268.376 139.006 268.483 138.884 268.622C138.764 268.759 138.705 268.94 138.705 269.168C138.705 269.483 138.821 269.722 139.054 269.884C139.287 270.043 139.584 270.122 139.945 270.122ZM144.595 271V264.455H145.826V265.494H145.895C146.014 265.142 146.224 264.865 146.525 264.663C146.829 264.459 147.173 264.357 147.556 264.357C147.636 264.357 147.73 264.359 147.838 264.365C147.949 264.371 148.035 264.378 148.098 264.386V265.605C148.047 265.591 147.956 265.575 147.825 265.558C147.694 265.538 147.564 265.528 147.433 265.528C147.132 265.528 146.863 265.592 146.627 265.72C146.395 265.845 146.21 266.02 146.074 266.244C145.937 266.466 145.869 266.719 145.869 267.003V271H144.595ZM154.105 266.053L152.95 266.257C152.902 266.109 152.825 265.969 152.72 265.835C152.618 265.702 152.479 265.592 152.303 265.507C152.126 265.422 151.906 265.379 151.642 265.379C151.281 265.379 150.98 265.46 150.739 265.622C150.497 265.781 150.376 265.987 150.376 266.24C150.376 266.459 150.457 266.635 150.619 266.768C150.781 266.902 151.043 267.011 151.403 267.097L152.443 267.335C153.045 267.474 153.494 267.689 153.79 267.979C154.085 268.268 154.233 268.645 154.233 269.108C154.233 269.5 154.119 269.849 153.892 270.156C153.668 270.46 153.354 270.699 152.95 270.872C152.55 271.045 152.085 271.132 151.557 271.132C150.824 271.132 150.226 270.976 149.763 270.663C149.3 270.348 149.016 269.901 148.911 269.321L150.142 269.134C150.219 269.455 150.376 269.697 150.615 269.862C150.854 270.024 151.165 270.105 151.548 270.105C151.966 270.105 152.3 270.018 152.55 269.845C152.8 269.669 152.925 269.455 152.925 269.202C152.925 268.997 152.848 268.825 152.695 268.686C152.544 268.547 152.312 268.442 152 268.371L150.892 268.128C150.281 267.989 149.83 267.767 149.537 267.463C149.247 267.159 149.102 266.774 149.102 266.308C149.102 265.922 149.21 265.584 149.426 265.294C149.642 265.004 149.94 264.778 150.321 264.616C150.702 264.452 151.138 264.369 151.629 264.369C152.337 264.369 152.893 264.523 153.3 264.83C153.706 265.134 153.974 265.541 154.105 266.053ZM156.908 267.114V271H155.634V262.273H156.891V265.52H156.972C157.125 265.168 157.36 264.888 157.675 264.68C157.99 264.473 158.402 264.369 158.911 264.369C159.36 264.369 159.752 264.462 160.087 264.646C160.425 264.831 160.686 265.107 160.871 265.473C161.059 265.837 161.152 266.291 161.152 266.837V271H159.878V266.99C159.878 266.51 159.755 266.138 159.507 265.874C159.26 265.607 158.917 265.473 158.476 265.473C158.175 265.473 157.905 265.537 157.667 265.665C157.431 265.793 157.245 265.98 157.108 266.227C156.975 266.472 156.908 266.767 156.908 267.114ZM164.757 271.145C164.343 271.145 163.968 271.068 163.632 270.915C163.297 270.759 163.032 270.533 162.836 270.237C162.642 269.942 162.546 269.58 162.546 269.151C162.546 268.781 162.617 268.477 162.759 268.239C162.901 268 163.093 267.811 163.334 267.672C163.576 267.533 163.846 267.428 164.144 267.357C164.442 267.286 164.746 267.232 165.056 267.195C165.448 267.149 165.766 267.112 166.01 267.084C166.255 267.053 166.432 267.003 166.543 266.935C166.654 266.866 166.709 266.756 166.709 266.602V266.572C166.709 266.2 166.604 265.912 166.394 265.707C166.186 265.503 165.877 265.401 165.465 265.401C165.036 265.401 164.698 265.496 164.451 265.686C164.206 265.874 164.037 266.082 163.944 266.312L162.746 266.04C162.888 265.642 163.096 265.321 163.368 265.077C163.644 264.83 163.961 264.651 164.319 264.54C164.676 264.426 165.053 264.369 165.448 264.369C165.709 264.369 165.986 264.401 166.279 264.463C166.574 264.523 166.85 264.634 167.105 264.795C167.364 264.957 167.576 265.189 167.74 265.49C167.905 265.788 167.988 266.176 167.988 266.653V271H166.743V270.105H166.692C166.61 270.27 166.486 270.432 166.321 270.591C166.157 270.75 165.945 270.882 165.686 270.987C165.428 271.092 165.118 271.145 164.757 271.145ZM165.034 270.122C165.387 270.122 165.688 270.053 165.938 269.913C166.191 269.774 166.382 269.592 166.513 269.368C166.647 269.141 166.713 268.898 166.713 268.639V267.795C166.668 267.841 166.58 267.884 166.449 267.923C166.321 267.96 166.175 267.993 166.01 268.021C165.846 268.047 165.685 268.071 165.529 268.094C165.373 268.114 165.242 268.131 165.137 268.145C164.89 268.176 164.664 268.229 164.459 268.303C164.257 268.376 164.096 268.483 163.973 268.622C163.854 268.759 163.794 268.94 163.794 269.168C163.794 269.483 163.911 269.722 164.144 269.884C164.377 270.043 164.674 270.122 165.034 270.122ZM172.963 262.273H174.561L177.339 269.057H177.441L180.22 262.273H181.818V271H180.565V264.685H180.484L177.91 270.987H176.87L174.297 264.68H174.216V271H172.963V262.273ZM187.776 268.286V264.455H189.055V271H187.802V269.866H187.734C187.583 270.216 187.342 270.507 187.009 270.74C186.68 270.97 186.269 271.085 185.778 271.085C185.357 271.085 184.985 270.993 184.661 270.808C184.34 270.621 184.087 270.344 183.903 269.977C183.721 269.611 183.63 269.158 183.63 268.618V264.455H184.904V268.464C184.904 268.911 185.028 269.266 185.275 269.53C185.522 269.794 185.843 269.926 186.238 269.926C186.477 269.926 186.714 269.866 186.95 269.747C187.188 269.628 187.386 269.447 187.542 269.206C187.701 268.964 187.779 268.658 187.776 268.286ZM190.767 273.455V264.455H192.011V265.516H192.118C192.191 265.379 192.298 265.222 192.437 265.043C192.576 264.864 192.77 264.707 193.017 264.574C193.264 264.438 193.591 264.369 193.997 264.369C194.525 264.369 194.997 264.503 195.412 264.77C195.826 265.037 196.152 265.422 196.387 265.925C196.626 266.428 196.745 267.033 196.745 267.74C196.745 268.447 196.627 269.054 196.392 269.56C196.156 270.062 195.832 270.45 195.42 270.723C195.008 270.993 194.538 271.128 194.01 271.128C193.612 271.128 193.287 271.061 193.034 270.928C192.784 270.794 192.588 270.638 192.446 270.459C192.304 270.28 192.194 270.121 192.118 269.982H192.041V273.455H190.767ZM192.015 267.727C192.015 268.187 192.082 268.591 192.216 268.938C192.349 269.284 192.542 269.555 192.795 269.751C193.048 269.945 193.358 270.041 193.724 270.041C194.105 270.041 194.423 269.94 194.679 269.739C194.934 269.534 195.127 269.257 195.258 268.908C195.392 268.558 195.458 268.165 195.458 267.727C195.458 267.295 195.393 266.908 195.262 266.564C195.135 266.22 194.941 265.949 194.683 265.75C194.427 265.551 194.108 265.452 193.724 265.452C193.355 265.452 193.042 265.547 192.787 265.737C192.534 265.928 192.342 266.193 192.211 266.534C192.081 266.875 192.015 267.273 192.015 267.727ZM198.173 273.455V264.455H199.417V265.516H199.524C199.598 265.379 199.704 265.222 199.843 265.043C199.983 264.864 200.176 264.707 200.423 264.574C200.67 264.438 200.997 264.369 201.403 264.369C201.931 264.369 202.403 264.503 202.818 264.77C203.233 265.037 203.558 265.422 203.794 265.925C204.032 266.428 204.152 267.033 204.152 267.74C204.152 268.447 204.034 269.054 203.798 269.56C203.562 270.062 203.238 270.45 202.826 270.723C202.414 270.993 201.944 271.128 201.416 271.128C201.018 271.128 200.693 271.061 200.44 270.928C200.19 270.794 199.994 270.638 199.852 270.459C199.71 270.28 199.6 270.121 199.524 269.982H199.447V273.455H198.173ZM199.422 267.727C199.422 268.187 199.488 268.591 199.622 268.938C199.755 269.284 199.949 269.555 200.201 269.751C200.454 269.945 200.764 270.041 201.13 270.041C201.511 270.041 201.829 269.94 202.085 269.739C202.341 269.534 202.534 269.257 202.664 268.908C202.798 268.558 202.865 268.165 202.865 267.727C202.865 267.295 202.799 266.908 202.669 266.564C202.541 266.22 202.348 265.949 202.089 265.75C201.833 265.551 201.514 265.452 201.13 265.452C200.761 265.452 200.449 265.547 200.193 265.737C199.94 265.928 199.748 266.193 199.618 266.534C199.487 266.875 199.422 267.273 199.422 267.727ZM207.484 271.145C207.069 271.145 206.694 271.068 206.359 270.915C206.024 270.759 205.758 270.533 205.562 270.237C205.369 269.942 205.272 269.58 205.272 269.151C205.272 268.781 205.343 268.477 205.485 268.239C205.627 268 205.819 267.811 206.061 267.672C206.302 267.533 206.572 267.428 206.87 267.357C207.169 267.286 207.473 267.232 207.782 267.195C208.174 267.149 208.493 267.112 208.737 267.084C208.981 267.053 209.159 267.003 209.27 266.935C209.38 266.866 209.436 266.756 209.436 266.602V266.572C209.436 266.2 209.331 265.912 209.12 265.707C208.913 265.503 208.603 265.401 208.191 265.401C207.762 265.401 207.424 265.496 207.177 265.686C206.933 265.874 206.764 266.082 206.67 266.312L205.473 266.04C205.615 265.642 205.822 265.321 206.095 265.077C206.37 264.83 206.687 264.651 207.045 264.54C207.403 264.426 207.779 264.369 208.174 264.369C208.436 264.369 208.713 264.401 209.005 264.463C209.301 264.523 209.576 264.634 209.832 264.795C210.091 264.957 210.302 265.189 210.467 265.49C210.632 265.788 210.714 266.176 210.714 266.653V271H209.47V270.105H209.419C209.336 270.27 209.213 270.432 209.048 270.591C208.883 270.75 208.672 270.882 208.413 270.987C208.154 271.092 207.845 271.145 207.484 271.145ZM207.761 270.122C208.113 270.122 208.414 270.053 208.664 269.913C208.917 269.774 209.109 269.592 209.24 269.368C209.373 269.141 209.44 268.898 209.44 268.639V267.795C209.395 267.841 209.306 267.884 209.176 267.923C209.048 267.96 208.902 267.993 208.737 268.021C208.572 268.047 208.412 268.071 208.255 268.094C208.099 268.114 207.968 268.131 207.863 268.145C207.616 268.176 207.39 268.229 207.186 268.303C206.984 268.376 206.822 268.483 206.7 268.622C206.581 268.759 206.521 268.94 206.521 269.168C206.521 269.483 206.637 269.722 206.87 269.884C207.103 270.043 207.4 270.122 207.761 270.122ZM212.411 271V264.455H213.643V265.494H213.711C213.83 265.142 214.04 264.865 214.342 264.663C214.646 264.459 214.989 264.357 215.373 264.357C215.452 264.357 215.546 264.359 215.654 264.365C215.765 264.371 215.852 264.378 215.914 264.386V265.605C215.863 265.591 215.772 265.575 215.641 265.558C215.511 265.538 215.38 265.528 215.249 265.528C214.948 265.528 214.68 265.592 214.444 265.72C214.211 265.845 214.026 266.02 213.89 266.244C213.754 266.466 213.685 266.719 213.685 267.003V271H212.411ZM218.863 271.145C218.448 271.145 218.073 271.068 217.738 270.915C217.403 270.759 217.137 270.533 216.941 270.237C216.748 269.942 216.651 269.58 216.651 269.151C216.651 268.781 216.722 268.477 216.864 268.239C217.006 268 217.198 267.811 217.44 267.672C217.681 267.533 217.951 267.428 218.249 267.357C218.548 267.286 218.852 267.232 219.161 267.195C219.553 267.149 219.871 267.112 220.116 267.084C220.36 267.053 220.538 267.003 220.648 266.935C220.759 266.866 220.815 266.756 220.815 266.602V266.572C220.815 266.2 220.71 265.912 220.499 265.707C220.292 265.503 219.982 265.401 219.57 265.401C219.141 265.401 218.803 265.496 218.556 265.686C218.312 265.874 218.143 266.082 218.049 266.312L216.852 266.04C216.994 265.642 217.201 265.321 217.474 265.077C217.749 264.83 218.066 264.651 218.424 264.54C218.782 264.426 219.158 264.369 219.553 264.369C219.815 264.369 220.092 264.401 220.384 264.463C220.68 264.523 220.955 264.634 221.211 264.795C221.469 264.957 221.681 265.189 221.846 265.49C222.011 265.788 222.093 266.176 222.093 266.653V271H220.849V270.105H220.798C220.715 270.27 220.592 270.432 220.427 270.591C220.262 270.75 220.05 270.882 219.792 270.987C219.533 271.092 219.224 271.145 218.863 271.145ZM219.14 270.122C219.492 270.122 219.793 270.053 220.043 269.913C220.296 269.774 220.488 269.592 220.619 269.368C220.752 269.141 220.819 268.898 220.819 268.639V267.795C220.773 267.841 220.685 267.884 220.555 267.923C220.427 267.96 220.281 267.993 220.116 268.021C219.951 268.047 219.79 268.071 219.634 268.094C219.478 268.114 219.347 268.131 219.242 268.145C218.995 268.176 218.769 268.229 218.565 268.303C218.363 268.376 218.201 268.483 218.079 268.622C217.96 268.759 217.9 268.94 217.9 269.168C217.9 269.483 218.016 269.722 218.249 269.884C218.482 270.043 218.779 270.122 219.14 270.122ZM223.79 264.455H225.064V271.426C225.064 271.864 224.985 272.233 224.826 272.534C224.669 272.835 224.436 273.064 224.127 273.22C223.82 273.376 223.441 273.455 222.989 273.455C222.944 273.455 222.901 273.455 222.861 273.455C222.819 273.455 222.775 273.453 222.729 273.45V272.355C222.769 272.355 222.804 272.355 222.836 272.355C222.864 272.355 222.897 272.355 222.934 272.355C223.235 272.355 223.452 272.274 223.586 272.112C223.722 271.953 223.79 271.722 223.79 271.418V264.455ZM224.421 263.445C224.199 263.445 224.009 263.371 223.85 263.223C223.694 263.072 223.615 262.893 223.615 262.686C223.615 262.476 223.694 262.297 223.85 262.149C224.009 261.999 224.199 261.923 224.421 261.923C224.642 261.923 224.831 261.999 224.988 262.149C225.147 262.297 225.226 262.476 225.226 262.686C225.226 262.893 225.147 263.072 224.988 263.223C224.831 263.371 224.642 263.445 224.421 263.445ZM230.925 268.286V264.455H232.203V271H230.95V269.866H230.882C230.732 270.216 230.49 270.507 230.158 270.74C229.828 270.97 229.418 271.085 228.926 271.085C228.506 271.085 228.134 270.993 227.81 270.808C227.489 270.621 227.236 270.344 227.051 269.977C226.869 269.611 226.778 269.158 226.778 268.618V264.455H228.053V268.464C228.053 268.911 228.176 269.266 228.423 269.53C228.67 269.794 228.991 269.926 229.386 269.926C229.625 269.926 229.862 269.866 230.098 269.747C230.337 269.628 230.534 269.447 230.69 269.206C230.849 268.964 230.928 268.658 230.925 268.286ZM240.947 266.082V267.19H237.078V266.082H240.947ZM248.753 271.119C248.142 271.119 247.603 271.014 247.134 270.804C246.668 270.594 246.303 270.304 246.039 269.935C245.775 269.565 245.644 269.145 245.647 268.673C245.644 268.304 245.719 267.964 245.873 267.655C246.029 267.342 246.24 267.082 246.507 266.875C246.775 266.665 247.073 266.531 247.402 266.474V266.423C246.968 266.318 246.62 266.085 246.358 265.724C246.097 265.364 245.968 264.949 245.971 264.48C245.968 264.034 246.086 263.636 246.324 263.287C246.566 262.935 246.897 262.658 247.317 262.456C247.738 262.254 248.216 262.153 248.753 262.153C249.284 262.153 249.759 262.256 250.176 262.46C250.597 262.662 250.928 262.939 251.169 263.291C251.411 263.641 251.533 264.037 251.536 264.48C251.533 264.949 251.4 265.364 251.135 265.724C250.871 266.085 250.527 266.318 250.104 266.423V266.474C250.431 266.531 250.725 266.665 250.986 266.875C251.25 267.082 251.461 267.342 251.617 267.655C251.776 267.964 251.857 268.304 251.86 268.673C251.857 269.145 251.723 269.565 251.459 269.935C251.195 270.304 250.828 270.594 250.36 270.804C249.894 271.014 249.358 271.119 248.753 271.119ZM248.753 270.041C249.114 270.041 249.426 269.982 249.691 269.862C249.955 269.74 250.159 269.571 250.304 269.355C250.449 269.136 250.523 268.881 250.526 268.588C250.523 268.284 250.444 268.016 250.287 267.783C250.134 267.55 249.925 267.366 249.661 267.233C249.397 267.099 249.094 267.033 248.753 267.033C248.409 267.033 248.104 267.099 247.837 267.233C247.57 267.366 247.36 267.55 247.206 267.783C247.053 268.016 246.978 268.284 246.98 268.588C246.978 268.881 247.047 269.136 247.189 269.355C247.334 269.571 247.54 269.74 247.807 269.862C248.074 269.982 248.39 270.041 248.753 270.041ZM248.753 265.98C249.043 265.98 249.3 265.922 249.525 265.805C249.749 265.689 249.925 265.527 250.053 265.32C250.184 265.112 250.25 264.869 250.253 264.591C250.25 264.318 250.185 264.08 250.057 263.875C249.932 263.67 249.757 263.513 249.533 263.402C249.309 263.288 249.049 263.232 248.753 263.232C248.452 263.232 248.188 263.288 247.961 263.402C247.736 263.513 247.561 263.67 247.436 263.875C247.311 264.08 247.25 264.318 247.253 264.591C247.25 264.869 247.313 265.112 247.441 265.32C247.569 265.527 247.745 265.689 247.969 265.805C248.196 265.922 248.458 265.98 248.753 265.98ZM256.425 271.119C255.839 271.119 255.317 271.018 254.857 270.817C254.399 270.615 254.037 270.335 253.77 269.977C253.506 269.616 253.364 269.199 253.344 268.724H254.682C254.699 268.983 254.786 269.207 254.942 269.398C255.101 269.585 255.308 269.73 255.564 269.832C255.82 269.935 256.104 269.986 256.416 269.986C256.76 269.986 257.064 269.926 257.328 269.807C257.595 269.687 257.804 269.521 257.955 269.308C258.105 269.092 258.18 268.844 258.18 268.562C258.18 268.27 258.105 268.013 257.955 267.791C257.807 267.567 257.589 267.391 257.303 267.263C257.018 267.135 256.675 267.071 256.271 267.071H255.534V265.997H256.271C256.595 265.997 256.879 265.939 257.124 265.822C257.371 265.706 257.564 265.544 257.703 265.337C257.842 265.126 257.912 264.881 257.912 264.599C257.912 264.33 257.851 264.095 257.729 263.896C257.609 263.695 257.439 263.537 257.217 263.423C256.999 263.31 256.74 263.253 256.442 263.253C256.158 263.253 255.892 263.305 255.645 263.411C255.401 263.513 255.202 263.661 255.048 263.854C254.895 264.044 254.813 264.273 254.801 264.54H253.527C253.541 264.068 253.68 263.653 253.945 263.295C254.212 262.937 254.564 262.658 255.001 262.456C255.439 262.254 255.925 262.153 256.459 262.153C257.018 262.153 257.501 262.263 257.908 262.482C258.317 262.697 258.632 262.986 258.854 263.347C259.078 263.707 259.189 264.102 259.186 264.531C259.189 265.02 259.053 265.435 258.777 265.776C258.504 266.116 258.141 266.345 257.686 266.462V266.53C258.266 266.618 258.714 266.848 259.033 267.22C259.354 267.592 259.513 268.054 259.51 268.605C259.513 269.085 259.379 269.516 259.109 269.896C258.842 270.277 258.477 270.577 258.014 270.795C257.551 271.011 257.021 271.119 256.425 271.119ZM261.415 271L265.224 263.466V263.402H260.818V262.273H266.588V263.44L262.791 271H261.415ZM267.184 269.295V268.23L270.955 262.273H271.794V263.841H271.262L268.564 268.111V268.179H273.733V269.295H267.184ZM271.321 271V268.972L271.33 268.486V262.273H272.578V271H271.321ZM275.512 271L279.322 263.466V263.402H274.916V262.273H280.686V263.44L276.889 271H275.512ZM281.281 269.295V268.23L285.053 262.273H285.892V263.841H285.359L282.662 268.111V268.179H287.831V269.295H281.281ZM285.419 271V268.972L285.428 268.486V262.273H286.676V271H285.419ZM289.316 271V270.045L292.269 266.986C292.585 266.653 292.844 266.362 293.049 266.112C293.256 265.859 293.411 265.619 293.513 265.392C293.616 265.165 293.667 264.923 293.667 264.668C293.667 264.378 293.599 264.128 293.462 263.918C293.326 263.705 293.14 263.541 292.904 263.428C292.668 263.311 292.403 263.253 292.107 263.253C291.795 263.253 291.522 263.317 291.289 263.445C291.056 263.572 290.877 263.753 290.752 263.986C290.627 264.219 290.565 264.491 290.565 264.804H289.308C289.308 264.273 289.43 263.808 289.674 263.411C289.918 263.013 290.254 262.705 290.68 262.486C291.106 262.264 291.59 262.153 292.133 262.153C292.681 262.153 293.164 262.263 293.582 262.482C294.002 262.697 294.33 262.993 294.566 263.368C294.802 263.74 294.92 264.161 294.92 264.629C294.92 264.953 294.859 265.27 294.737 265.58C294.617 265.889 294.408 266.234 294.11 266.615C293.812 266.993 293.397 267.452 292.866 267.991L291.131 269.807V269.871H295.06V271H289.316ZM299.577 262.153C299.967 262.156 300.35 262.227 300.728 262.366C301.106 262.506 301.447 262.733 301.751 263.048C302.058 263.364 302.302 263.79 302.484 264.327C302.668 264.861 302.762 265.526 302.765 266.321C302.765 267.085 302.688 267.766 302.535 268.362C302.381 268.956 302.161 269.457 301.874 269.866C301.59 270.276 301.245 270.587 300.839 270.8C300.433 271.013 299.975 271.119 299.467 271.119C298.947 271.119 298.485 271.017 298.082 270.812C297.678 270.608 297.35 270.325 297.097 269.964C296.844 269.601 296.687 269.183 296.624 268.712H297.924C298.009 269.087 298.183 269.391 298.444 269.624C298.708 269.854 299.049 269.969 299.467 269.969C300.106 269.969 300.604 269.69 300.962 269.134C301.32 268.574 301.501 267.793 301.504 266.79H301.435C301.288 267.034 301.103 267.244 300.881 267.42C300.663 267.597 300.417 267.733 300.144 267.83C299.871 267.926 299.58 267.974 299.271 267.974C298.768 267.974 298.31 267.851 297.898 267.604C297.487 267.357 297.158 267.017 296.914 266.585C296.67 266.153 296.548 265.661 296.548 265.107C296.548 264.555 296.673 264.055 296.923 263.607C297.175 263.158 297.528 262.803 297.979 262.541C298.434 262.277 298.967 262.148 299.577 262.153ZM299.582 263.261C299.249 263.261 298.95 263.344 298.683 263.509C298.418 263.67 298.21 263.891 298.056 264.169C297.903 264.445 297.826 264.751 297.826 265.089C297.826 265.428 297.9 265.734 298.048 266.01C298.198 266.283 298.403 266.5 298.661 266.662C298.923 266.821 299.221 266.901 299.556 266.901C299.806 266.901 300.039 266.852 300.255 266.756C300.471 266.659 300.66 266.526 300.822 266.355C300.984 266.182 301.11 265.986 301.201 265.767C301.292 265.548 301.337 265.318 301.337 265.077C301.337 264.756 301.261 264.457 301.107 264.182C300.957 263.906 300.749 263.685 300.485 263.517C300.221 263.347 299.92 263.261 299.582 263.261ZM307.343 271.119C306.757 271.119 306.235 271.018 305.775 270.817C305.317 270.615 304.955 270.335 304.688 269.977C304.424 269.616 304.282 269.199 304.262 268.724H305.6C305.617 268.983 305.703 269.207 305.86 269.398C306.019 269.585 306.226 269.73 306.482 269.832C306.738 269.935 307.022 269.986 307.334 269.986C307.678 269.986 307.982 269.926 308.246 269.807C308.513 269.687 308.722 269.521 308.873 269.308C309.023 269.092 309.098 268.844 309.098 268.562C309.098 268.27 309.023 268.013 308.873 267.791C308.725 267.567 308.507 267.391 308.221 267.263C307.936 267.135 307.593 267.071 307.189 267.071H306.452V265.997H307.189C307.513 265.997 307.797 265.939 308.042 265.822C308.289 265.706 308.482 265.544 308.621 265.337C308.76 265.126 308.83 264.881 308.83 264.599C308.83 264.33 308.769 264.095 308.647 263.896C308.527 263.695 308.357 263.537 308.135 263.423C307.917 263.31 307.658 263.253 307.36 263.253C307.076 263.253 306.81 263.305 306.563 263.411C306.319 263.513 306.12 263.661 305.966 263.854C305.813 264.044 305.73 264.273 305.719 264.54H304.445C304.459 264.068 304.598 263.653 304.863 263.295C305.13 262.937 305.482 262.658 305.919 262.456C306.357 262.254 306.843 262.153 307.377 262.153C307.936 262.153 308.419 262.263 308.826 262.482C309.235 262.697 309.55 262.986 309.772 263.347C309.996 263.707 310.107 264.102 310.104 264.531C310.107 265.02 309.971 265.435 309.695 265.776C309.422 266.116 309.059 266.345 308.604 266.462V266.53C309.184 266.618 309.632 266.848 309.951 267.22C310.272 267.592 310.431 268.054 310.428 268.605C310.431 269.085 310.297 269.516 310.027 269.896C309.76 270.277 309.395 270.577 308.932 270.795C308.469 271.011 307.939 271.119 307.343 271.119ZM314.941 262.153C315.33 262.156 315.713 262.227 316.091 262.366C316.469 262.506 316.81 262.733 317.114 263.048C317.421 263.364 317.665 263.79 317.847 264.327C318.032 264.861 318.125 265.526 318.128 266.321C318.128 267.085 318.051 267.766 317.898 268.362C317.745 268.956 317.525 269.457 317.238 269.866C316.953 270.276 316.608 270.587 316.202 270.8C315.796 271.013 315.338 271.119 314.83 271.119C314.31 271.119 313.848 271.017 313.445 270.812C313.042 270.608 312.713 270.325 312.461 269.964C312.208 269.601 312.05 269.183 311.988 268.712H313.287C313.373 269.087 313.546 269.391 313.807 269.624C314.071 269.854 314.412 269.969 314.83 269.969C315.469 269.969 315.968 269.69 316.326 269.134C316.684 268.574 316.864 267.793 316.867 266.79H316.799C316.651 267.034 316.466 267.244 316.245 267.42C316.026 267.597 315.78 267.733 315.507 267.83C315.235 267.926 314.944 267.974 314.634 267.974C314.131 267.974 313.674 267.851 313.262 267.604C312.85 267.357 312.522 267.017 312.277 266.585C312.033 266.153 311.911 265.661 311.911 265.107C311.911 264.555 312.036 264.055 312.286 263.607C312.539 263.158 312.891 262.803 313.343 262.541C313.797 262.277 314.33 262.148 314.941 262.153ZM314.945 263.261C314.613 263.261 314.313 263.344 314.046 263.509C313.782 263.67 313.573 263.891 313.419 264.169C313.266 264.445 313.189 264.751 313.189 265.089C313.189 265.428 313.263 265.734 313.411 266.01C313.561 266.283 313.766 266.5 314.025 266.662C314.286 266.821 314.584 266.901 314.919 266.901C315.169 266.901 315.402 266.852 315.618 266.756C315.834 266.659 316.023 266.526 316.185 266.355C316.347 266.182 316.473 265.986 316.564 265.767C316.655 265.548 316.701 265.318 316.701 265.077C316.701 264.756 316.624 264.457 316.471 264.182C316.32 263.906 316.113 263.685 315.848 263.517C315.584 263.347 315.283 263.261 314.945 263.261Z" fill="#5627B0"/>
<path d="M232.98 240.41C232.64 234.61 227.37 230.14 221.3 231.14C217.12 231.83 213.77 235.22 213.12 239.4C212.74 241.82 213.24 244.11 214.33 246L213.44 249.31C213.24 250.06 213.93 250.74 214.67 250.53L217.93 249.63C219.41 250.5 221.14 251 222.99 251C228.63 251 233.31 246.03 232.98 240.41ZM227.88 244.72C227.79 244.9 227.68 245.07 227.54 245.23C227.29 245.5 227.02 245.7 226.72 245.82C226.42 245.95 226.09 246.01 225.74 246.01C225.23 246.01 224.68 245.89 224.11 245.64C223.53 245.39 222.96 245.06 222.39 244.65C221.81 244.23 221.27 243.76 220.75 243.25C220.23 242.73 219.77 242.18 219.35 241.61C218.94 241.04 218.61 240.47 218.37 239.9C218.13 239.33 218.01 238.78 218.01 238.26C218.01 237.92 218.07 237.59 218.19 237.29C218.31 236.98 218.5 236.7 218.77 236.45C219.09 236.13 219.44 235.98 219.81 235.98C219.95 235.98 220.09 236.01 220.22 236.07C220.35 236.13 220.47 236.22 220.56 236.35L221.72 237.99C221.81 238.12 221.88 238.23 221.92 238.34C221.97 238.45 221.99 238.55 221.99 238.65C221.99 238.77 221.95 238.89 221.88 239.01C221.81 239.13 221.72 239.25 221.6 239.37L221.22 239.77C221.16 239.83 221.14 239.89 221.14 239.97C221.14 240.01 221.15 240.05 221.16 240.09C221.18 240.13 221.19 240.16 221.2 240.19C221.29 240.36 221.45 240.57 221.67 240.83C221.9 241.09 222.14 241.36 222.4 241.62C222.67 241.89 222.93 242.13 223.2 242.36C223.46 242.58 223.68 242.73 223.85 242.82C223.88 242.83 223.91 242.85 223.94 242.86C223.98 242.88 224.02 242.88 224.07 242.88C224.16 242.88 224.22 242.85 224.28 242.79L224.66 242.41C224.79 242.28 224.91 242.19 225.02 242.13C225.14 242.06 225.25 242.02 225.38 242.02C225.48 242.02 225.58 242.04 225.69 242.09C225.8 242.14 225.92 242.2 226.04 242.29L227.7 243.47C227.83 243.56 227.92 243.67 227.98 243.79C228.03 243.92 228.06 244.04 228.06 244.18C228 244.35 227.96 244.54 227.88 244.72Z" fill="#5627B0"/>
<path d="M133.959 151V142.273H135.276V146.44H135.382L139.043 142.273H140.7L137.18 146.202L140.713 151H139.128L136.307 147.101L135.276 148.286V151H133.959ZM141.825 151V144.455H143.057V145.494H143.125C143.244 145.142 143.455 144.865 143.756 144.663C144.06 144.459 144.403 144.357 144.787 144.357C144.866 144.357 144.96 144.359 145.068 144.365C145.179 144.371 145.266 144.378 145.328 144.386V145.605C145.277 145.591 145.186 145.575 145.055 145.558C144.925 145.538 144.794 145.528 144.663 145.528C144.362 145.528 144.094 145.592 143.858 145.72C143.625 145.845 143.44 146.02 143.304 146.244C143.168 146.466 143.099 146.719 143.099 147.003V151H141.825ZM146.431 151V144.455H147.705V151H146.431ZM147.074 143.445C146.853 143.445 146.662 143.371 146.503 143.223C146.347 143.072 146.269 142.893 146.269 142.686C146.269 142.476 146.347 142.297 146.503 142.149C146.662 141.999 146.853 141.923 147.074 141.923C147.296 141.923 147.485 141.999 147.641 142.149C147.8 142.297 147.88 142.476 147.88 142.686C147.88 142.893 147.8 143.072 147.641 143.223C147.485 143.371 147.296 143.445 147.074 143.445ZM154.324 146.053L153.169 146.257C153.121 146.109 153.044 145.969 152.939 145.835C152.837 145.702 152.697 145.592 152.521 145.507C152.345 145.422 152.125 145.379 151.861 145.379C151.5 145.379 151.199 145.46 150.957 145.622C150.716 145.781 150.595 145.987 150.595 146.24C150.595 146.459 150.676 146.635 150.838 146.768C151 146.902 151.261 147.011 151.622 147.097L152.662 147.335C153.264 147.474 153.713 147.689 154.009 147.979C154.304 148.268 154.452 148.645 154.452 149.108C154.452 149.5 154.338 149.849 154.111 150.156C153.886 150.46 153.572 150.699 153.169 150.872C152.768 151.045 152.304 151.132 151.776 151.132C151.043 151.132 150.445 150.976 149.982 150.663C149.518 150.348 149.234 149.901 149.129 149.321L150.361 149.134C150.438 149.455 150.595 149.697 150.834 149.862C151.072 150.024 151.384 150.105 151.767 150.105C152.185 150.105 152.518 150.018 152.768 149.845C153.018 149.669 153.143 149.455 153.143 149.202C153.143 148.997 153.067 148.825 152.913 148.686C152.763 148.547 152.531 148.442 152.219 148.371L151.111 148.128C150.5 147.989 150.048 147.767 149.756 147.463C149.466 147.159 149.321 146.774 149.321 146.308C149.321 145.922 149.429 145.584 149.645 145.294C149.861 145.004 150.159 144.778 150.54 144.616C150.92 144.452 151.357 144.369 151.848 144.369C152.555 144.369 153.112 144.523 153.518 144.83C153.925 145.134 154.193 145.541 154.324 146.053ZM157.127 147.114V151H155.853V142.273H157.11V145.52H157.191C157.344 145.168 157.578 144.888 157.894 144.68C158.209 144.473 158.621 144.369 159.13 144.369C159.578 144.369 159.971 144.462 160.306 144.646C160.644 144.831 160.905 145.107 161.09 145.473C161.277 145.837 161.371 146.291 161.371 146.837V151H160.097V146.99C160.097 146.51 159.973 146.138 159.726 145.874C159.479 145.607 159.135 145.473 158.695 145.473C158.394 145.473 158.124 145.537 157.885 145.665C157.65 145.793 157.463 145.98 157.327 146.227C157.194 146.472 157.127 146.767 157.127 147.114ZM164.346 147.114V151H163.071V144.455H164.294V145.52H164.375C164.526 145.173 164.762 144.895 165.083 144.685C165.407 144.474 165.814 144.369 166.306 144.369C166.752 144.369 167.142 144.463 167.478 144.651C167.813 144.835 168.073 145.111 168.257 145.477C168.442 145.844 168.534 146.297 168.534 146.837V151H167.26V146.99C167.26 146.516 167.137 146.145 166.89 145.878C166.642 145.608 166.303 145.473 165.871 145.473C165.576 145.473 165.313 145.537 165.083 145.665C164.855 145.793 164.675 145.98 164.542 146.227C164.411 146.472 164.346 146.767 164.346 147.114ZM172.148 151.145C171.733 151.145 171.358 151.068 171.023 150.915C170.688 150.759 170.422 150.533 170.226 150.237C170.033 149.942 169.936 149.58 169.936 149.151C169.936 148.781 170.007 148.477 170.15 148.239C170.292 148 170.483 147.811 170.725 147.672C170.966 147.533 171.236 147.428 171.534 147.357C171.833 147.286 172.137 147.232 172.446 147.195C172.838 147.149 173.157 147.112 173.401 147.084C173.645 147.053 173.823 147.003 173.934 146.935C174.044 146.866 174.1 146.756 174.1 146.602V146.572C174.1 146.2 173.995 145.912 173.784 145.707C173.577 145.503 173.267 145.401 172.855 145.401C172.426 145.401 172.088 145.496 171.841 145.686C171.597 145.874 171.428 146.082 171.334 146.312L170.137 146.04C170.279 145.642 170.486 145.321 170.759 145.077C171.034 144.83 171.351 144.651 171.709 144.54C172.067 144.426 172.444 144.369 172.838 144.369C173.1 144.369 173.377 144.401 173.669 144.463C173.965 144.523 174.24 144.634 174.496 144.795C174.755 144.957 174.966 145.189 175.131 145.49C175.296 145.788 175.378 146.176 175.378 146.653V151H174.134V150.105H174.083C174 150.27 173.877 150.432 173.712 150.591C173.547 150.75 173.336 150.882 173.077 150.987C172.819 151.092 172.509 151.145 172.148 151.145ZM172.425 150.122C172.777 150.122 173.078 150.053 173.328 149.913C173.581 149.774 173.773 149.592 173.904 149.368C174.037 149.141 174.104 148.898 174.104 148.639V147.795C174.059 147.841 173.971 147.884 173.84 147.923C173.712 147.96 173.566 147.993 173.401 148.021C173.236 148.047 173.076 148.071 172.919 148.094C172.763 148.114 172.632 148.131 172.527 148.145C172.28 148.176 172.054 148.229 171.85 148.303C171.648 148.376 171.486 148.483 171.364 148.622C171.245 148.759 171.185 148.94 171.185 149.168C171.185 149.483 171.301 149.722 171.534 149.884C171.767 150.043 172.064 150.122 172.425 150.122ZM181.116 142.273L183.545 149.381H183.643L186.072 142.273H187.495L184.355 151H182.833L179.693 142.273H181.116ZM189.914 151.145C189.499 151.145 189.124 151.068 188.789 150.915C188.453 150.759 188.188 150.533 187.992 150.237C187.799 149.942 187.702 149.58 187.702 149.151C187.702 148.781 187.773 148.477 187.915 148.239C188.057 148 188.249 147.811 188.49 147.672C188.732 147.533 189.002 147.428 189.3 147.357C189.598 147.286 189.902 147.232 190.212 147.195C190.604 147.149 190.922 147.112 191.167 147.084C191.411 147.053 191.588 147.003 191.699 146.935C191.81 146.866 191.865 146.756 191.865 146.602V146.572C191.865 146.2 191.76 145.912 191.55 145.707C191.343 145.503 191.033 145.401 190.621 145.401C190.192 145.401 189.854 145.496 189.607 145.686C189.363 145.874 189.194 146.082 189.1 146.312L187.902 146.04C188.044 145.642 188.252 145.321 188.525 145.077C188.8 144.83 189.117 144.651 189.475 144.54C189.833 144.426 190.209 144.369 190.604 144.369C190.865 144.369 191.142 144.401 191.435 144.463C191.73 144.523 192.006 144.634 192.262 144.795C192.52 144.957 192.732 145.189 192.897 145.49C193.061 145.788 193.144 146.176 193.144 146.653V151H191.9V150.105H191.848C191.766 150.27 191.642 150.432 191.478 150.591C191.313 150.75 191.101 150.882 190.843 150.987C190.584 151.092 190.275 151.145 189.914 151.145ZM190.191 150.122C190.543 150.122 190.844 150.053 191.094 149.913C191.347 149.774 191.539 149.592 191.669 149.368C191.803 149.141 191.87 148.898 191.87 148.639V147.795C191.824 147.841 191.736 147.884 191.605 147.923C191.478 147.96 191.331 147.993 191.167 148.021C191.002 148.047 190.841 148.071 190.685 148.094C190.529 148.114 190.398 148.131 190.293 148.145C190.046 148.176 189.82 148.229 189.615 148.303C189.414 148.376 189.252 148.483 189.13 148.622C189.01 148.759 188.951 148.94 188.951 149.168C188.951 149.483 189.067 149.722 189.3 149.884C189.533 150.043 189.83 150.122 190.191 150.122ZM194.841 151V144.455H196.072V145.494H196.141C196.26 145.142 196.47 144.865 196.771 144.663C197.075 144.459 197.419 144.357 197.803 144.357C197.882 144.357 197.976 144.359 198.084 144.365C198.195 144.371 198.281 144.378 198.344 144.386V145.605C198.293 145.591 198.202 145.575 198.071 145.558C197.94 145.538 197.81 145.528 197.679 145.528C197.378 145.528 197.109 145.592 196.874 145.72C196.641 145.845 196.456 146.02 196.32 146.244C196.183 146.466 196.115 146.719 196.115 147.003V151H194.841ZM201.662 151.128C201.134 151.128 200.662 150.993 200.248 150.723C199.836 150.45 199.512 150.062 199.276 149.56C199.043 149.054 198.926 148.447 198.926 147.74C198.926 147.033 199.044 146.428 199.28 145.925C199.519 145.422 199.846 145.037 200.26 144.77C200.675 144.503 201.145 144.369 201.671 144.369C202.077 144.369 202.404 144.438 202.651 144.574C202.901 144.707 203.094 144.864 203.23 145.043C203.37 145.222 203.478 145.379 203.554 145.516H203.631V142.273H204.905V151H203.661V149.982H203.554C203.478 150.121 203.367 150.28 203.222 150.459C203.08 150.638 202.884 150.794 202.634 150.928C202.384 151.061 202.06 151.128 201.662 151.128ZM201.944 150.041C202.31 150.041 202.62 149.945 202.873 149.751C203.128 149.555 203.321 149.284 203.452 148.938C203.586 148.591 203.652 148.187 203.652 147.727C203.652 147.273 203.587 146.875 203.456 146.534C203.326 146.193 203.134 145.928 202.881 145.737C202.628 145.547 202.316 145.452 201.944 145.452C201.56 145.452 201.24 145.551 200.985 145.75C200.729 145.949 200.536 146.22 200.405 146.564C200.277 146.908 200.213 147.295 200.213 147.727C200.213 148.165 200.279 148.558 200.409 148.908C200.54 149.257 200.733 149.534 200.989 149.739C201.248 149.94 201.566 150.041 201.944 150.041ZM207.998 147.114V151H206.724V142.273H207.981V145.52H208.062C208.215 145.168 208.45 144.888 208.765 144.68C209.08 144.473 209.492 144.369 210.001 144.369C210.45 144.369 210.842 144.462 211.177 144.646C211.515 144.831 211.776 145.107 211.961 145.473C212.148 145.837 212.242 146.291 212.242 146.837V151H210.968V146.99C210.968 146.51 210.844 146.138 210.597 145.874C210.35 145.607 210.006 145.473 209.566 145.473C209.265 145.473 208.995 145.537 208.756 145.665C208.521 145.793 208.335 145.98 208.198 146.227C208.065 146.472 207.998 146.767 207.998 147.114ZM215.847 151.145C215.433 151.145 215.058 151.068 214.722 150.915C214.387 150.759 214.121 150.533 213.925 150.237C213.732 149.942 213.636 149.58 213.636 149.151C213.636 148.781 213.707 148.477 213.849 148.239C213.991 148 214.183 147.811 214.424 147.672C214.665 147.533 214.935 147.428 215.234 147.357C215.532 147.286 215.836 147.232 216.146 147.195C216.538 147.149 216.856 147.112 217.1 147.084C217.344 147.053 217.522 147.003 217.633 146.935C217.744 146.866 217.799 146.756 217.799 146.602V146.572C217.799 146.2 217.694 145.912 217.484 145.707C217.276 145.503 216.967 145.401 216.555 145.401C216.126 145.401 215.788 145.496 215.54 145.686C215.296 145.874 215.127 146.082 215.033 146.312L213.836 146.04C213.978 145.642 214.185 145.321 214.458 145.077C214.734 144.83 215.05 144.651 215.408 144.54C215.766 144.426 216.143 144.369 216.538 144.369C216.799 144.369 217.076 144.401 217.369 144.463C217.664 144.523 217.94 144.634 218.195 144.795C218.454 144.957 218.665 145.189 218.83 145.49C218.995 145.788 219.077 146.176 219.077 146.653V151H217.833V150.105H217.782C217.7 150.27 217.576 150.432 217.411 150.591C217.246 150.75 217.035 150.882 216.776 150.987C216.518 151.092 216.208 151.145 215.847 151.145ZM216.124 150.122C216.477 150.122 216.778 150.053 217.028 149.913C217.281 149.774 217.472 149.592 217.603 149.368C217.737 149.141 217.803 148.898 217.803 148.639V147.795C217.758 147.841 217.67 147.884 217.539 147.923C217.411 147.96 217.265 147.993 217.1 148.021C216.935 148.047 216.775 148.071 216.619 148.094C216.462 148.114 216.332 148.131 216.227 148.145C215.979 148.176 215.754 148.229 215.549 148.303C215.347 148.376 215.185 148.483 215.063 148.622C214.944 148.759 214.884 148.94 214.884 149.168C214.884 149.483 215.001 149.722 215.234 149.884C215.467 150.043 215.763 150.122 216.124 150.122ZM222.049 147.114V151H220.775V144.455H221.998V145.52H222.078C222.229 145.173 222.465 144.895 222.786 144.685C223.11 144.474 223.517 144.369 224.009 144.369C224.455 144.369 224.846 144.463 225.181 144.651C225.516 144.835 225.776 145.111 225.961 145.477C226.145 145.844 226.238 146.297 226.238 146.837V151H224.963V146.99C224.963 146.516 224.84 146.145 224.593 145.878C224.346 145.608 224.006 145.473 223.574 145.473C223.279 145.473 223.016 145.537 222.786 145.665C222.559 145.793 222.378 145.98 222.245 146.227C222.114 146.472 222.049 146.767 222.049 147.114ZM234.979 146.082V147.19H231.109V146.082H234.979ZM242.784 151.119C242.174 151.119 241.634 151.014 241.165 150.804C240.699 150.594 240.334 150.304 240.07 149.935C239.806 149.565 239.675 149.145 239.678 148.673C239.675 148.304 239.75 147.964 239.904 147.655C240.06 147.342 240.272 147.082 240.539 146.875C240.806 146.665 241.104 146.531 241.434 146.474V146.423C240.999 146.318 240.651 146.085 240.39 145.724C240.128 145.364 239.999 144.949 240.002 144.48C239.999 144.034 240.117 143.636 240.355 143.287C240.597 142.935 240.928 142.658 241.348 142.456C241.769 142.254 242.248 142.153 242.784 142.153C243.316 142.153 243.79 142.256 244.208 142.46C244.628 142.662 244.959 142.939 245.201 143.291C245.442 143.641 245.564 144.037 245.567 144.48C245.564 144.949 245.431 145.364 245.167 145.724C244.902 146.085 244.559 146.318 244.135 146.423V146.474C244.462 146.531 244.756 146.665 245.017 146.875C245.282 147.082 245.492 147.342 245.648 147.655C245.807 147.964 245.888 148.304 245.891 148.673C245.888 149.145 245.755 149.565 245.49 149.935C245.226 150.304 244.86 150.594 244.391 150.804C243.925 151.014 243.39 151.119 242.784 151.119ZM242.784 150.041C243.145 150.041 243.458 149.982 243.722 149.862C243.986 149.74 244.191 149.571 244.336 149.355C244.48 149.136 244.554 148.881 244.557 148.588C244.554 148.284 244.475 148.016 244.319 147.783C244.165 147.55 243.956 147.366 243.692 147.233C243.428 147.099 243.125 147.033 242.784 147.033C242.441 147.033 242.135 147.099 241.868 147.233C241.601 147.366 241.391 147.55 241.238 147.783C241.084 148.016 241.009 148.284 241.012 148.588C241.009 148.881 241.078 149.136 241.221 149.355C241.365 149.571 241.571 149.74 241.838 149.862C242.105 149.982 242.421 150.041 242.784 150.041ZM242.784 145.98C243.074 145.98 243.331 145.922 243.556 145.805C243.78 145.689 243.956 145.527 244.084 145.32C244.215 145.112 244.282 144.869 244.284 144.591C244.282 144.318 244.216 144.08 244.088 143.875C243.963 143.67 243.789 143.513 243.564 143.402C243.34 143.288 243.08 143.232 242.784 143.232C242.483 143.232 242.219 143.288 241.992 143.402C241.767 143.513 241.593 143.67 241.468 143.875C241.343 144.08 241.282 144.318 241.284 144.591C241.282 144.869 241.344 145.112 241.472 145.32C241.6 145.527 241.776 145.689 242 145.805C242.228 145.922 242.489 145.98 242.784 145.98ZM247.418 151V150.045L250.371 146.986C250.686 146.653 250.946 146.362 251.151 146.112C251.358 145.859 251.513 145.619 251.615 145.392C251.717 145.165 251.768 144.923 251.768 144.668C251.768 144.378 251.7 144.128 251.564 143.918C251.428 143.705 251.241 143.541 251.006 143.428C250.77 143.311 250.504 143.253 250.209 143.253C249.896 143.253 249.624 143.317 249.391 143.445C249.158 143.572 248.979 143.753 248.854 143.986C248.729 144.219 248.666 144.491 248.666 144.804H247.409C247.409 144.273 247.531 143.808 247.776 143.411C248.02 143.013 248.355 142.705 248.781 142.486C249.207 142.264 249.692 142.153 250.234 142.153C250.783 142.153 251.266 142.263 251.683 142.482C252.104 142.697 252.432 142.993 252.668 143.368C252.903 143.74 253.021 144.161 253.021 144.629C253.021 144.953 252.96 145.27 252.838 145.58C252.719 145.889 252.51 146.234 252.212 146.615C251.913 146.993 251.499 147.452 250.967 147.991L249.233 149.807V149.871H253.162V151H247.418ZM254.406 149.295V148.23L258.178 142.273H259.017V143.841H258.484L255.787 148.111V148.179H260.956V149.295H254.406ZM258.544 151V148.972L258.553 148.486V142.273H259.801V151H258.544ZM262.735 151L266.545 143.466V143.402H262.138V142.273H267.908V143.44L264.112 151H262.735ZM272.154 151.119C271.62 151.119 271.14 151.017 270.713 150.812C270.29 150.605 269.952 150.321 269.699 149.96C269.446 149.599 269.311 149.188 269.294 148.724H270.573C270.604 149.099 270.77 149.408 271.071 149.649C271.373 149.891 271.733 150.011 272.154 150.011C272.489 150.011 272.786 149.935 273.044 149.781C273.306 149.625 273.51 149.411 273.658 149.138C273.809 148.865 273.884 148.554 273.884 148.205C273.884 147.849 273.807 147.533 273.654 147.254C273.5 146.976 273.289 146.757 273.019 146.598C272.752 146.439 272.445 146.358 272.098 146.355C271.834 146.355 271.569 146.401 271.301 146.491C271.034 146.582 270.819 146.702 270.654 146.849L269.448 146.67L269.938 142.273H274.736V143.402H271.033L270.756 145.844H270.807C270.978 145.679 271.203 145.541 271.485 145.43C271.769 145.32 272.073 145.264 272.397 145.264C272.928 145.264 273.401 145.391 273.816 145.643C274.233 145.896 274.561 146.241 274.8 146.679C275.042 147.114 275.161 147.614 275.158 148.179C275.161 148.744 275.033 149.249 274.775 149.692C274.519 150.135 274.164 150.484 273.709 150.74C273.257 150.993 272.739 151.119 272.154 151.119ZM279.663 151.119C279.053 151.119 278.513 151.014 278.044 150.804C277.578 150.594 277.213 150.304 276.949 149.935C276.685 149.565 276.554 149.145 276.557 148.673C276.554 148.304 276.629 147.964 276.783 147.655C276.939 147.342 277.151 147.082 277.418 146.875C277.685 146.665 277.983 146.531 278.312 146.474V146.423C277.878 146.318 277.53 146.085 277.268 145.724C277.007 145.364 276.878 144.949 276.881 144.48C276.878 144.034 276.996 143.636 277.234 143.287C277.476 142.935 277.807 142.658 278.227 142.456C278.648 142.254 279.126 142.153 279.663 142.153C280.195 142.153 280.669 142.256 281.087 142.46C281.507 142.662 281.838 142.939 282.08 143.291C282.321 143.641 282.443 144.037 282.446 144.48C282.443 144.949 282.31 145.364 282.045 145.724C281.781 146.085 281.438 146.318 281.014 146.423V146.474C281.341 146.531 281.635 146.665 281.896 146.875C282.161 147.082 282.371 147.342 282.527 147.655C282.686 147.964 282.767 148.304 282.77 148.673C282.767 149.145 282.634 149.565 282.369 149.935C282.105 150.304 281.739 150.594 281.27 150.804C280.804 151.014 280.268 151.119 279.663 151.119ZM279.663 150.041C280.024 150.041 280.337 149.982 280.601 149.862C280.865 149.74 281.07 149.571 281.214 149.355C281.359 149.136 281.433 148.881 281.436 148.588C281.433 148.284 281.354 148.016 281.197 147.783C281.044 147.55 280.835 147.366 280.571 147.233C280.307 147.099 280.004 147.033 279.663 147.033C279.32 147.033 279.014 147.099 278.747 147.233C278.48 147.366 278.27 147.55 278.116 147.783C277.963 148.016 277.888 148.284 277.891 148.588C277.888 148.881 277.957 149.136 278.099 149.355C278.244 149.571 278.45 149.74 278.717 149.862C278.984 149.982 279.3 150.041 279.663 150.041ZM279.663 145.98C279.953 145.98 280.21 145.922 280.435 145.805C280.659 145.689 280.835 145.527 280.963 145.32C281.094 145.112 281.161 144.869 281.163 144.591C281.161 144.318 281.095 144.08 280.967 143.875C280.842 143.67 280.668 143.513 280.443 143.402C280.219 143.288 279.959 143.232 279.663 143.232C279.362 143.232 279.098 143.288 278.871 143.402C278.646 143.513 278.472 143.67 278.347 143.875C278.222 144.08 278.161 144.318 278.163 144.591C278.161 144.869 278.223 145.112 278.351 145.32C278.479 145.527 278.655 145.689 278.879 145.805C279.107 145.922 279.368 145.98 279.663 145.98ZM287.335 151.145C286.662 151.142 286.086 150.964 285.609 150.612C285.132 150.26 284.767 149.747 284.514 149.074C284.261 148.401 284.135 147.589 284.135 146.641C284.135 145.695 284.261 144.886 284.514 144.216C284.77 143.545 285.136 143.034 285.613 142.682C286.093 142.33 286.667 142.153 287.335 142.153C288.002 142.153 288.575 142.331 289.052 142.686C289.529 143.038 289.895 143.55 290.147 144.22C290.403 144.888 290.531 145.695 290.531 146.641C290.531 147.592 290.404 148.405 290.152 149.078C289.899 149.749 289.534 150.261 289.056 150.616C288.579 150.969 288.005 151.145 287.335 151.145ZM287.335 150.007C287.926 150.007 288.387 149.719 288.72 149.142C289.055 148.565 289.223 147.732 289.223 146.641C289.223 145.916 289.146 145.304 288.993 144.804C288.842 144.301 288.625 143.92 288.341 143.662C288.059 143.401 287.724 143.27 287.335 143.27C286.747 143.27 286.285 143.56 285.95 144.139C285.615 144.719 285.446 145.553 285.443 146.641C285.443 147.368 285.518 147.983 285.669 148.486C285.822 148.986 286.039 149.365 286.321 149.624C286.602 149.879 286.94 150.007 287.335 150.007ZM292.043 151V150.045L294.996 146.986C295.311 146.653 295.571 146.362 295.776 146.112C295.983 145.859 296.138 145.619 296.24 145.392C296.342 145.165 296.393 144.923 296.393 144.668C296.393 144.378 296.325 144.128 296.189 143.918C296.053 143.705 295.866 143.541 295.631 143.428C295.395 143.311 295.129 143.253 294.834 143.253C294.521 143.253 294.249 143.317 294.016 143.445C293.783 143.572 293.604 143.753 293.479 143.986C293.354 144.219 293.291 144.491 293.291 144.804H292.034C292.034 144.273 292.156 143.808 292.401 143.411C292.645 143.013 292.98 142.705 293.406 142.486C293.832 142.264 294.317 142.153 294.859 142.153C295.408 142.153 295.891 142.263 296.308 142.482C296.729 142.697 297.057 142.993 297.293 143.368C297.528 143.74 297.646 144.161 297.646 144.629C297.646 144.953 297.585 145.27 297.463 145.58C297.344 145.889 297.135 146.234 296.837 146.615C296.538 146.993 296.124 147.452 295.592 147.991L293.858 149.807V149.871H297.787V151H292.043ZM299.402 151V150.045L302.355 146.986C302.67 146.653 302.93 146.362 303.135 146.112C303.342 145.859 303.497 145.619 303.599 145.392C303.702 145.165 303.753 144.923 303.753 144.668C303.753 144.378 303.685 144.128 303.548 143.918C303.412 143.705 303.226 143.541 302.99 143.428C302.754 143.311 302.489 143.253 302.193 143.253C301.881 143.253 301.608 143.317 301.375 143.445C301.142 143.572 300.963 143.753 300.838 143.986C300.713 144.219 300.651 144.491 300.651 144.804H299.393C299.393 144.273 299.516 143.808 299.76 143.411C300.004 143.013 300.339 142.705 300.766 142.486C301.192 142.264 301.676 142.153 302.219 142.153C302.767 142.153 303.25 142.263 303.668 142.482C304.088 142.697 304.416 142.993 304.652 143.368C304.888 143.74 305.006 144.161 305.006 144.629C305.006 144.953 304.945 145.27 304.822 145.58C304.703 145.889 304.494 146.234 304.196 146.615C303.898 146.993 303.483 147.452 302.952 147.991L301.217 149.807V149.871H305.146V151H299.402ZM309.8 151.119C309.214 151.119 308.692 151.018 308.232 150.817C307.774 150.615 307.412 150.335 307.145 149.977C306.881 149.616 306.739 149.199 306.719 148.724H308.057C308.074 148.983 308.161 149.207 308.317 149.398C308.476 149.585 308.683 149.73 308.939 149.832C309.195 149.935 309.479 149.986 309.791 149.986C310.135 149.986 310.439 149.926 310.703 149.807C310.97 149.687 311.179 149.521 311.33 149.308C311.48 149.092 311.555 148.844 311.555 148.562C311.555 148.27 311.48 148.013 311.33 147.791C311.182 147.567 310.964 147.391 310.678 147.263C310.393 147.135 310.05 147.071 309.646 147.071H308.909V145.997H309.646C309.97 145.997 310.254 145.939 310.499 145.822C310.746 145.706 310.939 145.544 311.078 145.337C311.217 145.126 311.287 144.881 311.287 144.599C311.287 144.33 311.226 144.095 311.104 143.896C310.984 143.695 310.814 143.537 310.592 143.423C310.374 143.31 310.115 143.253 309.817 143.253C309.533 143.253 309.267 143.305 309.02 143.411C308.776 143.513 308.577 143.661 308.423 143.854C308.27 144.044 308.188 144.273 308.176 144.54H306.902C306.916 144.068 307.055 143.653 307.32 143.295C307.587 142.937 307.939 142.658 308.376 142.456C308.814 142.254 309.3 142.153 309.834 142.153C310.393 142.153 310.876 142.263 311.283 142.482C311.692 142.697 312.007 142.986 312.229 143.347C312.453 143.707 312.564 144.102 312.561 144.531C312.564 145.02 312.428 145.435 312.152 145.776C311.879 146.116 311.516 146.345 311.061 146.462V146.53C311.641 146.618 312.089 146.848 312.408 147.22C312.729 147.592 312.888 148.054 312.885 148.605C312.888 149.085 312.754 149.516 312.484 149.896C312.217 150.277 311.852 150.577 311.389 150.795C310.926 151.011 310.396 151.119 309.8 151.119Z" fill="#5627B0"/>
<path d="M232.98 122.41C232.64 116.61 227.37 112.14 221.3 113.14C217.12 113.83 213.77 117.22 213.12 121.4C212.74 123.82 213.24 126.11 214.33 128L213.44 131.31C213.24 132.06 213.93 132.74 214.67 132.53L217.93 131.63C219.41 132.5 221.14 133 222.99 133C228.63 133 233.31 128.03 232.98 122.41ZM227.88 126.72C227.79 126.9 227.68 127.07 227.54 127.23C227.29 127.5 227.02 127.7 226.72 127.82C226.42 127.95 226.09 128.01 225.74 128.01C225.23 128.01 224.68 127.89 224.11 127.64C223.53 127.39 222.96 127.06 222.39 126.65C221.81 126.23 221.27 125.76 220.75 125.25C220.23 124.73 219.77 124.18 219.35 123.61C218.94 123.04 218.61 122.47 218.37 121.9C218.13 121.33 218.01 120.78 218.01 120.26C218.01 119.92 218.07 119.59 218.19 119.29C218.31 118.98 218.5 118.7 218.77 118.45C219.09 118.13 219.44 117.98 219.81 117.98C219.95 117.98 220.09 118.01 220.22 118.07C220.35 118.13 220.47 118.22 220.56 118.35L221.72 119.99C221.81 120.12 221.88 120.23 221.92 120.34C221.97 120.45 221.99 120.55 221.99 120.65C221.99 120.77 221.95 120.89 221.88 121.01C221.81 121.13 221.72 121.25 221.6 121.37L221.22 121.77C221.16 121.83 221.14 121.89 221.14 121.97C221.14 122.01 221.15 122.05 221.16 122.09C221.18 122.13 221.19 122.16 221.2 122.19C221.29 122.36 221.45 122.57 221.67 122.83C221.9 123.09 222.14 123.36 222.4 123.62C222.67 123.89 222.93 124.13 223.2 124.36C223.46 124.58 223.68 124.73 223.85 124.82C223.88 124.83 223.91 124.85 223.94 124.86C223.98 124.88 224.02 124.88 224.07 124.88C224.16 124.88 224.22 124.85 224.28 124.79L224.66 124.41C224.79 124.28 224.91 124.19 225.02 124.13C225.14 124.06 225.25 124.02 225.38 124.02C225.48 124.02 225.58 124.04 225.69 124.09C225.8 124.14 225.92 124.2 226.04 124.29L227.7 125.47C227.83 125.56 227.92 125.67 227.98 125.79C228.03 125.92 228.06 126.04 228.06 126.18C228 126.35 227.96 126.54 227.88 126.72Z" fill="#5627B0"/>
<path d="M160.918 64.6562H157.185C157.116 64.1733 156.977 63.7443 156.767 63.3693C156.557 62.9886 156.287 62.6648 155.957 62.3977C155.628 62.1307 155.247 61.9261 154.815 61.7841C154.389 61.642 153.926 61.571 153.426 61.571C152.523 61.571 151.736 61.7955 151.065 62.2443C150.395 62.6875 149.875 63.3352 149.506 64.1875C149.136 65.0341 148.952 66.0625 148.952 67.2727C148.952 68.517 149.136 69.5625 149.506 70.4091C149.881 71.2557 150.403 71.8949 151.074 72.3267C151.744 72.7585 152.52 72.9744 153.401 72.9744C153.895 72.9744 154.352 72.9091 154.773 72.7784C155.199 72.6477 155.577 72.4574 155.906 72.2074C156.236 71.9517 156.509 71.642 156.724 71.2784C156.946 70.9148 157.099 70.5 157.185 70.0341L160.918 70.0511C160.821 70.8523 160.58 71.625 160.193 72.3693C159.813 73.108 159.298 73.7699 158.651 74.3551C158.009 74.9347 157.241 75.3949 156.349 75.7358C155.463 76.071 154.46 76.2386 153.341 76.2386C151.784 76.2386 150.392 75.8864 149.165 75.1818C147.943 74.4773 146.977 73.4574 146.267 72.1222C145.562 70.7869 145.21 69.1705 145.21 67.2727C145.21 65.3693 145.568 63.75 146.284 62.4148C147 61.0795 147.972 60.0625 149.199 59.3636C150.426 58.6591 151.807 58.3068 153.341 58.3068C154.352 58.3068 155.29 58.4489 156.153 58.733C157.023 59.017 157.793 59.4318 158.463 59.9773C159.134 60.517 159.679 61.179 160.099 61.9631C160.526 62.7472 160.798 63.6449 160.918 64.6562ZM179.604 67.2727C179.604 69.1761 179.243 70.7955 178.521 72.1307C177.805 73.4659 176.828 74.4858 175.589 75.1903C174.357 75.8892 172.97 76.2386 171.43 76.2386C169.879 76.2386 168.487 75.8864 167.254 75.1818C166.021 74.4773 165.047 73.4574 164.331 72.1222C163.615 70.7869 163.257 69.1705 163.257 67.2727C163.257 65.3693 163.615 63.75 164.331 62.4148C165.047 61.0795 166.021 60.0625 167.254 59.3636C168.487 58.6591 169.879 58.3068 171.43 58.3068C172.97 58.3068 174.357 58.6591 175.589 59.3636C176.828 60.0625 177.805 61.0795 178.521 62.4148C179.243 63.75 179.604 65.3693 179.604 67.2727ZM175.862 67.2727C175.862 66.0398 175.678 65 175.308 64.1534C174.945 63.3068 174.43 62.6648 173.766 62.2273C173.101 61.7898 172.322 61.571 171.43 61.571C170.538 61.571 169.76 61.7898 169.095 62.2273C168.43 62.6648 167.913 63.3068 167.544 64.1534C167.18 65 166.999 66.0398 166.999 67.2727C166.999 68.5057 167.18 69.5455 167.544 70.392C167.913 71.2386 168.43 71.8807 169.095 72.3182C169.76 72.7557 170.538 72.9744 171.43 72.9744C172.322 72.9744 173.101 72.7557 173.766 72.3182C174.43 71.8807 174.945 71.2386 175.308 70.392C175.678 69.5455 175.862 68.5057 175.862 67.2727ZM196.937 58.5455V76H193.749L186.156 65.0142H186.028V76H182.337V58.5455H185.576L193.11 69.5227H193.263V58.5455H196.937ZM199.321 61.5881V58.5455H213.656V61.5881H208.312V76H204.665V61.5881H199.321ZM216.893 76H212.938L218.964 58.5455H223.719L229.737 76H225.782L221.41 62.5341H221.273L216.893 76ZM216.646 69.1392H225.987V72.0199H216.646V69.1392ZM246.418 64.6562H242.685C242.616 64.1733 242.477 63.7443 242.267 63.3693C242.057 62.9886 241.787 62.6648 241.457 62.3977C241.128 62.1307 240.747 61.9261 240.315 61.7841C239.889 61.642 239.426 61.571 238.926 61.571C238.023 61.571 237.236 61.7955 236.565 62.2443C235.895 62.6875 235.375 63.3352 235.006 64.1875C234.636 65.0341 234.452 66.0625 234.452 67.2727C234.452 68.517 234.636 69.5625 235.006 70.4091C235.381 71.2557 235.903 71.8949 236.574 72.3267C237.244 72.7585 238.02 72.9744 238.901 72.9744C239.395 72.9744 239.852 72.9091 240.273 72.7784C240.699 72.6477 241.077 72.4574 241.406 72.2074C241.736 71.9517 242.009 71.642 242.224 71.2784C242.446 70.9148 242.599 70.5 242.685 70.0341L246.418 70.0511C246.321 70.8523 246.08 71.625 245.693 72.3693C245.313 73.108 244.798 73.7699 244.151 74.3551C243.509 74.9347 242.741 75.3949 241.849 75.7358C240.963 76.071 239.96 76.2386 238.841 76.2386C237.284 76.2386 235.892 75.8864 234.665 75.1818C233.443 74.4773 232.477 73.4574 231.767 72.1222C231.062 70.7869 230.71 69.1705 230.71 67.2727C230.71 65.3693 231.068 63.75 231.784 62.4148C232.5 61.0795 233.472 60.0625 234.699 59.3636C235.926 58.6591 237.307 58.3068 238.841 58.3068C239.852 58.3068 240.79 58.4489 241.653 58.733C242.523 59.017 243.293 59.4318 243.963 59.9773C244.634 60.517 245.179 61.179 245.599 61.9631C246.026 62.7472 246.298 63.6449 246.418 64.6562ZM248.399 61.5881V58.5455H262.734V61.5881H257.391V76H253.743V61.5881H248.399ZM281.431 58.5455H285.121V69.8807C285.121 71.1534 284.817 72.267 284.21 73.2216C283.607 74.1761 282.763 74.9205 281.678 75.4545C280.593 75.983 279.329 76.2472 277.886 76.2472C276.437 76.2472 275.17 75.983 274.085 75.4545C272.999 74.9205 272.156 74.1761 271.553 73.2216C270.951 72.267 270.65 71.1534 270.65 69.8807V58.5455H274.34V69.5653C274.34 70.2301 274.485 70.821 274.775 71.3381C275.07 71.8551 275.485 72.2614 276.019 72.5568C276.553 72.8523 277.175 73 277.886 73C278.602 73 279.224 72.8523 279.752 72.5568C280.286 72.2614 280.698 71.8551 280.988 71.3381C281.283 70.821 281.431 70.2301 281.431 69.5653V58.5455ZM297.626 63.5653C297.558 62.8778 297.266 62.3437 296.749 61.9631C296.232 61.5824 295.53 61.392 294.643 61.392C294.041 61.392 293.533 61.4773 293.118 61.6477C292.703 61.8125 292.385 62.0426 292.163 62.3381C291.947 62.6335 291.839 62.9688 291.839 63.3438C291.828 63.6562 291.893 63.929 292.036 64.1619C292.183 64.3949 292.385 64.5966 292.641 64.767C292.896 64.9318 293.192 65.0767 293.527 65.2017C293.862 65.321 294.22 65.4233 294.601 65.5085L296.169 65.8835C296.93 66.054 297.629 66.2812 298.266 66.5653C298.902 66.8494 299.453 67.1989 299.919 67.6136C300.385 68.0284 300.746 68.517 301.001 69.0795C301.263 69.642 301.396 70.2869 301.402 71.0142C301.396 72.0824 301.124 73.0085 300.584 73.7926C300.05 74.571 299.277 75.1761 298.266 75.608C297.26 76.0341 296.047 76.2472 294.626 76.2472C293.217 76.2472 291.99 76.0312 290.945 75.5994C289.905 75.1676 289.092 74.5284 288.507 73.6818C287.928 72.8295 287.624 71.7756 287.595 70.5199H291.166C291.206 71.1051 291.374 71.5937 291.669 71.9858C291.97 72.3722 292.371 72.6648 292.871 72.8636C293.376 73.0568 293.947 73.1534 294.584 73.1534C295.209 73.1534 295.751 73.0625 296.212 72.8807C296.678 72.6989 297.038 72.446 297.294 72.1222C297.55 71.7983 297.678 71.4261 297.678 71.0057C297.678 70.6136 297.561 70.2841 297.328 70.017C297.101 69.75 296.766 69.5227 296.322 69.3352C295.885 69.1477 295.348 68.9773 294.712 68.8239L292.811 68.3466C291.339 67.9886 290.178 67.429 289.325 66.6676C288.473 65.9062 288.05 64.8807 288.055 63.5909C288.05 62.5341 288.331 61.6108 288.899 60.821C289.473 60.0312 290.26 59.4148 291.26 58.9716C292.26 58.5284 293.396 58.3068 294.669 58.3068C295.964 58.3068 297.095 58.5284 298.061 58.9716C299.033 59.4148 299.788 60.0312 300.328 60.821C300.868 61.6108 301.146 62.5256 301.163 63.5653H297.626Z" fill="#5627B0"/>
</g>
<defs>
<clipPath id="clip0_3_2">
<rect width="447" height="400" fill="white"/>
</clipPath>
</defs>
</svg>
