<?xml version="1.0" encoding="UTF-8" standalone="no"?>
<svg
   xmlns:dc="http://purl.org/dc/elements/1.1/"
   xmlns:cc="http://creativecommons.org/ns#"
   xmlns:rdf="http://www.w3.org/1999/02/22-rdf-syntax-ns#"
   xmlns:svg="http://www.w3.org/2000/svg"
   xmlns="http://www.w3.org/2000/svg"
   viewBox="0 0 849.20001 849.97333"
   height="849.97333"
   width="849.20001"
   xml:space="preserve"
   id="svg2"
   version="1.1"><metadata
     id="metadata8"><rdf:RDF><cc:Work
         rdf:about=""><dc:format>image/svg+xml</dc:format><dc:type
           rdf:resource="http://purl.org/dc/dcmitype/StillImage" /></cc:Work></rdf:RDF></metadata><defs
     id="defs6" /><g
     transform="matrix(1.3333333,0,0,-1.3333333,0,849.97333)"
     id="g10"><g
       transform="scale(0.1)"
       id="g12"><path
         id="path14"
         style="fill:#110f0d;fill-opacity:1;fill-rule:nonzero;stroke:none"
         d="m 1738.69,1454.75 c 0,-37.94 -0.48,-75.89 0.3,-113.81 0.23,-11.25 -2.54,-29.62 12.93,-29.43 14.06,0.17 12.51,18.24 14.08,30.01 0.81,6.04 0.69,12.22 1.17,18.31 5.53,70.71 10.94,141.43 16.68,212.14 12.46,153.65 25.08,307.31 30.31,461.42 0.69,20.21 10.7,56.24 -11.52,57.51 -22.84,1.3 -22.36,-35.44 -24.67,-57.61 -20.11,-192.35 -27.89,-385.53 -39.28,-578.54 z m 763.79,-22.41 c 0.42,63.79 -8.21,127.02 -11.45,190.57 -7.98,156.45 -19.6,312.65 -44.63,467.33 -8.34,51.51 -15.75,103.92 -34.13,153.47 -2.81,7.54 -4.07,19.16 -15.33,17.14 -11.28,-2.02 -8.37,-13.27 -8.39,-21.36 -0.1,-32.06 10.71,-62.71 14.04,-93.93 14.15,-132.56 27.09,-265.31 36.5,-398.27 9.84,-139.14 21.76,-278.06 35.76,-416.81 1.27,-12.62 -0.5,-33.16 15.82,-31.81 15.5,1.29 11.31,21.77 11.58,34.54 0.7,33.03 0.23,66.08 0.23,99.13 z m -769.07,875.46 c -15.54,-3.92 -20.52,-18.23 -25.79,-29.39 -27.52,-58.21 -54.35,-116.79 -79.55,-176.04 -60,-141.09 -121.76,-281.43 -172.49,-426.33 -25.71,-73.44 -56.61,-145.04 -82.76,-218.34 -26.48,-74.22 -15.34,-138.31 45.35,-196.44 56.26,-53.89 114.09,-107.01 163.22,-168.25 25.25,-31.46 22.83,-62.44 2.61,-94.291 -7.83,-12.348 -18.11,-23.289 -24.76,-36.168 -4.7,-9.129 -10.33,-21.699 1.25,-30.051 10.34,-7.469 18.61,1.148 25.24,8.18 20.98,22.218 42.53,44.031 61.84,67.65 22.89,28.01 23.44,57.94 0.83,87.13 -17.22,22.21 -35.53,43.29 -57.05,61.7 -49.18,42.1 -100.45,81.93 -142.93,131.42 -41.17,47.96 -55.78,99.2 -36.28,162.66 17.67,57.48 45.35,110.57 63.77,167.48 57.83,178.66 131.6,351 208.39,522.12 19.41,43.26 38.01,86.88 55.89,130.78 4.96,12.17 7.55,26.28 -6.78,36.18 z m 1179.57,-845.79 c -8,46.03 -17.87,94.72 -38.13,141.27 -40.82,93.76 -78.54,188.87 -119.95,282.37 -75.13,169.68 -155.86,336.44 -266.1,487.1 -9.19,12.56 -19.2,28.49 -32.93,18.91 -12.03,-8.38 1.39,-24.97 8.11,-35.17 86.2,-130.85 153.28,-271.88 218.18,-413.78 54.22,-118.55 102.51,-239.8 155.55,-358.91 44.06,-98.97 30.99,-182.27 -51.69,-257.1 -52.34,-47.37 -97.34,-102.99 -144.5,-155.91 -46.5,-52.2 -46.27,-69.46 2.08,-120.8 62.03,-65.861 125.93,-129.959 187.72,-196.029 33.16,-35.461 69.94,-69.012 85.19,-117.531 4.82,-15.34 7.92,-36.18 27.38,-32.2 18.05,3.7 16.62,25.43 15.59,41 -2.17,32.989 -25.8,54.77 -45.46,77.661 -74.86,87.16 -159.75,165.14 -232.89,254.059 -19.11,23.23 -20.13,38.91 -2.24,63.64 55.45,76.62 120.79,144.29 184.91,213.19 27.46,29.51 42.85,64.88 49.18,108.23 z m -525.23,2627.57 c 80.86,-4.73 161.42,-9.01 241.77,-18.89 68.18,-8.38 73.03,-3.72 88.43,63.84 13.32,58.41 3.77,81.5 -45.13,115.09 -46.43,31.92 -99.57,47.67 -153.09,58.92 -77.72,16.33 -156.58,28.72 -236.27,9.61 -77.59,-18.6 -133.11,-92.4 -126.64,-170.19 2.77,-33.27 13.56,-59.36 54.76,-58.64 58.71,1.03 117.45,0.26 176.17,0.26 z m -608.47,297.62 c -195.42,0.94 -325.57,-149.21 -297.66,-343.4 4.87,-33.85 20.03,-45.52 52.27,-37.92 47.81,11.27 96.2,17.12 145.2,18.41 91.64,2.41 183.29,4.78 274.94,6.9 32.46,0.75 61.56,6.38 70.93,43.85 25.74,102.89 -8.58,243.8 -120.51,289.05 -39.79,16.08 -81.7,24.87 -125.17,23.11 z M 4846.75,2447.74 c 137.23,-6.21 224.95,58.07 290.63,126.76 74.2,77.6 95.37,175.46 83.79,281.82 -9.22,84.67 -11.25,88.97 -94.66,86.03 -121.43,-4.29 -242.57,-2.97 -362.74,17.23 -52.13,8.76 -101.51,25.8 -146.2,54.97 -32.54,21.24 -55.26,50.47 -73.73,84.31 -17.31,31.72 -36.58,35.12 -56.41,11.01 -87.7,-106.61 -130.85,-297.21 -43.3,-436.6 92.76,-147.69 229.05,-221.11 402.62,-225.53 z m -990.85,-71.45 c 37.95,-1.45 88.77,2.91 134.41,24.8 146.35,70.18 237.6,181.25 245.42,349.13 6.15,131.94 -19.39,253.47 -122.35,347.36 -29.49,26.88 -47.4,23.7 -61.37,-13.62 -14.5,-38.71 -36.21,-71.59 -67.24,-98.88 -68.82,-60.52 -153.36,-82.95 -240.24,-98.08 -86.74,-15.11 -174.13,-26.44 -261.04,-40.68 -33.4,-5.48 -51.35,-24.76 -47.79,-61.57 5.2,-53.76 10.6,-107.7 29.37,-158.44 56.94,-153.93 205.89,-251.59 390.83,-250.02 z m 2293.27,739.43 c 2.38,160.47 -2.57,320.15 -23.95,480.02 -36.52,273.25 -101.07,539 -210.05,791.57 -119.56,277.11 -278.11,530.84 -475.49,761.46 -232.94,272.21 -508.54,489.95 -817.49,666.66 -132.17,75.59 -272.12,136.25 -415.27,190.34 -152.83,57.74 -309.34,100 -468.74,131.26 -142.93,28.03 -288.22,41.79 -433.6,52.5 -164.75,12.13 -327.71,-5.33 -490.59,-27.46 -210.12,-28.53 -416.96,-69 -616.92,-142.74 C 2008.68,5949.86 1827.62,5866.86 1655.3,5763.29 1404.79,5612.73 1182.57,5428.12 984.633,5214.25 715.48,4923.46 516.766,4588.78 383.004,4216.67 316.34,4031.21 268.703,3839.69 242.504,3643.82 c -27.219,-203.48 -28.539,-408.25 -21.203,-612.91 5.137,-143.38 26.465,-285.41 57.363,-425.36 33.715,-152.73 75.922,-303.06 133.309,-449.32 95.945,-244.53 214.242,-476.32 372.511,-686.65 30.059,-39.95 62.555,-78.09 94.59,-116.51 11.172,-13.4 26.297,-22.9 38.727,-2.81 10.73,17.35 20.195,36.72 24.765,56.46 22.918,99 57.247,194.58 85.634,291.92 43.48,149.04 101.37,293.64 139.69,444.18 11.02,43.31 32.4,70.74 71.38,90.37 72.35,36.44 149.44,60.8 223.9,91.79 113.9,47.41 228.28,93.61 339.77,146.61 28.25,13.42 44.25,33.29 43.31,65.71 -0.98,33.99 -10.07,62.03 -45.38,75.68 -31.8,12.29 -61.34,29.52 -93.51,41.54 -54.14,20.22 -104.25,47.97 -142.7,93.17 -79.03,92.94 -131.46,200.74 -163.59,316.69 -42.18,152.19 -68.34,307.89 -76.51,466.12 -0.8,15.58 -0.34,37.64 -21.54,35.81 -19.33,-1.66 -13.1,-23.37 -12.94,-36.95 1.29,-101.96 15.44,-202.68 35.65,-302.27 11.86,-58.48 23.49,-117.31 42.8,-174.22 32.92,-97.02 73.93,-190.38 124.8,-279.21 12.58,-21.98 8.94,-36.53 -10.84,-49.26 -25.73,-16.54 -52.76,-30.34 -81.54,-41.05 -38.94,-14.48 -50.02,-8.99 -53.73,32.34 -3.72,41.41 -6.77,83.01 -7.38,124.57 -1.22,83.39 -7.97,89.91 -92.1,78.94 -61.88,-8.06 -123.58,-18.01 -185.66,-23.78 -38.49,-3.56 -45.82,8.46 -35.9,45.63 23.93,89.58 46.68,179.49 72.15,268.64 9.18,32.14 -1.26,48.02 -30.64,58.47 -78.245,27.87 -158.014,50.24 -237.971,72.62 -84.504,23.64 -78.906,31.48 -30.918,86.62 71.64,82.3 147.828,159.66 232.459,228.74 35.41,28.9 39.09,46.16 15.25,77.27 -51.479,67.17 -114.151,120.49 -195.346,149.38 -65.867,23.44 -134.82,35.05 -201.957,53.58 -10.504,2.9 -23.652,3.55 -26.223,16.51 -2.394,12.09 10.582,15.21 17.786,20.79 34.785,26.94 69.269,54.37 105.324,79.54 84.191,58.79 173.269,110.52 253.336,175.27 56.54,45.73 58.9,59.66 21.72,121.71 -11.91,19.87 -22.142,40.82 -34.99,60.05 -60.965,91.3 -143.125,163.34 -219.797,240.36 -5.785,5.81 -17.363,8.78 -15.179,18.89 2.586,11.99 15.777,9.26 24.421,12.64 4.485,1.75 9.551,2.12 14.399,2.82 123.586,17.66 247.336,33.76 371.696,45.41 48.65,4.55 96.76,14.81 145.18,22.1 35.55,5.34 45.94,28.82 42.81,60.49 -3.24,32.81 -6.76,65.47 -14.66,97.87 -18.34,75.15 -45.79,146.78 -76.27,217.59 -22.44,52.12 -16.89,58.63 38.98,51.87 3.64,-0.44 7.29,-1 10.9,-1.67 114.66,-21.12 225.83,-53.98 332.44,-101.23 26.37,-11.68 41.88,-7.63 56.99,18.21 26.78,45.78 47.74,94 61.59,144.52 24.89,90.8 45.82,182.68 68.68,274.03 8.33,33.3 15.92,35.86 43.86,15.19 23.58,-17.44 45.62,-36.65 64.94,-58.86 63.42,-72.96 126.13,-146.55 190.61,-218.58 56.59,-63.21 59.47,-62.34 118.26,-2.75 115.9,117.49 243.64,218.48 396.01,285.58 25.1,11.05 36.84,11.5 37.9,-21.88 2.52,-79.56 8.36,-159.02 13.13,-238.5 4.19,-69.93 17.21,-138.31 36.14,-205.7 7.5,-26.71 22.43,-34.93 49.46,-26.13 68.57,22.34 136.23,46.98 203.46,73.1 60.35,23.44 120.46,48.01 183.4,64.07 8.98,2.29 20.88,7.08 27.8,-1.55 7.62,-9.51 -2.73,-17.92 -7.22,-26.02 -22.52,-40.58 -43.59,-82.11 -68.41,-121.26 -48.42,-76.37 -96.88,-152.65 -141.03,-231.64 -26.45,-47.32 -23.58,-57.24 28.51,-63.28 53.47,-6.2 107.46,-7.87 161.13,-12.57 74.4,-6.51 148.73,-13.81 223.05,-21.18 27.06,-2.68 36.8,-13.14 14.44,-36.24 -11.93,-12.31 -22.98,-25.46 -34.97,-37.7 -83.87,-85.63 -167.98,-171.01 -251.78,-256.72 -29,-29.65 -27.45,-41.47 11.12,-57.61 36.01,-15.09 73.55,-26.53 110.49,-39.35 67.88,-23.55 138.09,-40.44 203.65,-70.59 35.05,-16.1 35.9,-25.46 6.02,-50.61 -62.22,-52.34 -132.85,-91.62 -205.37,-126.81 -81.13,-39.35 -165.14,-72.75 -246.36,-111.91 -48.31,-23.3 -47.4,-36.11 -6.31,-68.97 66.5,-53.18 145.89,-84 218.08,-127.26 73.39,-43.99 74.34,-53.82 -1.22,-93.53 -72.27,-37.97 -146.96,-71.38 -220.84,-106.24 -31.87,-15.03 -42.88,-36.13 -29.19,-70.82 18.86,-47.79 34,-97.03 52.49,-144.97 12.28,-31.86 1.69,-49.88 -29.61,-57.18 -40.49,-9.43 -81.38,-17.17 -121.91,-26.47 -62.71,-14.39 -77.6,-52.21 -39.37,-104.35 21.61,-29.47 46.61,-56.57 71.22,-83.71 16.15,-17.81 13.91,-33.76 -3.22,-47.09 -17.02,-13.23 -33.95,-25.81 -56.86,-31.13 -88.3,-20.48 -168.57,-53.77 -204.69,-147.52 -1.67,-4.33 -6.06,-7.55 -8.97,-11.45 -48.24,-64.5 -114.09,-105.88 -184.98,-140.49 -55.08,-26.88 -84.5,-100.83 -62.12,-157.43 4.3,-10.87 12.29,-18.19 23.22,-22.07 24.15,-8.57 48.24,-17.36 72.59,-25.33 127.2,-41.64 259,-63.77 390.08,-87.64 64.96,-11.82 105.23,-32.72 122.09,-105.51 31.66,-136.61 77.35,-269.93 115.24,-405.16 33.97,-121.24 65.45,-243.2 97.73,-364.91 39.5,-148.89 79.21,-297.74 117.88,-446.85 56.18,-216.701 104.44,-435.22 148.67,-654.638 2.78,-13.813 5.82,-28.672 23.81,-26.34 16.51,2.137 14.26,17.668 14.61,29.406 6.53,219.512 34.03,436.434 76.57,651.792 30.06,152.13 79.48,297.29 147.49,436.33 14.07,28.76 36.98,41.92 69.24,32.34 29.3,-8.7 58.27,-18.49 87.45,-27.6 96.73,-30.21 192.63,-64.01 295.18,-69.34 10.49,-0.54 24.43,-5.8 27.89,9.16 3.66,15.81 -10.54,16.12 -21.22,18.32 -111.82,23.12 -217.99,62.34 -321.36,110.43 -151.19,70.35 -279.31,168.65 -381.89,301.05 -59.42,76.7 -106.94,160.31 -155.16,243.81 -4.38,7.55 -5.44,22.52 -18.74,17.78 -13.92,-4.95 -8.92,-18.99 -6.27,-28.84 5.7,-21.2 14.2,-41.65 20.05,-62.81 5.12,-18.47 4.95,-36.21 -21.94,-33.94 -38.03,3.23 -74.91,11.49 -109.07,29.44 -112.77,59.24 -155.83,271.83 -53.02,348.77 10.44,7.81 17.49,20.22 25.9,30.67 16.88,21 22.21,41.47 4.9,66.56 -22.84,33.14 -40.47,69.91 -63.71,102.72 -84.48,119.23 -88.44,246.57 -43.69,380.58 28.27,84.67 52.48,169.4 51.65,261.22 -0.55,60.36 16.2,123.46 44.48,176.38 52.86,98.89 122.14,188.04 189.01,278.3 193.38,261.04 459.53,384.92 776.07,416.97 162.44,16.45 322.99,2.26 483.04,-23.56 91.81,-14.8 183.62,-31.23 269.56,-68.87 68.45,-29.97 129.45,-73.05 191.86,-113.51 139.15,-90.21 232.28,-217.31 295.25,-368.61 62.37,-149.86 90.77,-309.03 126.93,-465.99 29.3,-127.2 67.23,-254.06 37.51,-387.05 -14.65,-65.56 -0.53,-119.34 47.62,-170.14 100.76,-106.35 52.64,-307.33 -89.71,-365.65 -54.58,-22.38 -84.25,-58.7 -103.56,-109.95 -38.23,-101.38 -94.24,-190.18 -181.26,-257.56 -22.15,-17.16 -41.58,-37.93 -61.71,-57.6 -79.79,-77.97 -61.88,-60.24 -13.14,-140.25 69.22,-113.62 145.4,-223.34 175.1,-356.46 8.2,-36.79 19.28,-38.26 48.82,-12.05 137.86,122.29 244.32,270.64 339.17,426.15 164.25,269.29 294.5,553.97 374.57,861.06 55.6,213.24 92.04,428.17 94.31,648.68 z M 3187.84,0 C 1420.62,-1.82031 -15.5664,1440.41 0.128906,3217.78 15.4219,4949.91 1429.04,6379.75 3193.42,6374.78 4952.65,6369.82 6363.01,4943.61 6368.94,3199.58 6374.99,1421.35 4936.67,-0.289063 3187.84,0" /></g></g></svg>